<?xml version="1.0" encoding="utf-8" standalone="no"?>
<!DOCTYPE svg PUBLIC "-//W3C//DTD SVG 1.1//EN"
  "http://www.w3.org/Graphics/SVG/1.1/DTD/svg11.dtd">
<svg xmlns:xlink="http://www.w3.org/1999/xlink" width="720pt" height="597.6pt" viewBox="0 0 720 597.6" xmlns="http://www.w3.org/2000/svg" version="1.1">
 <metadata>
  <rdf:RDF xmlns:dc="http://purl.org/dc/elements/1.1/" xmlns:cc="http://creativecommons.org/ns#" xmlns:rdf="http://www.w3.org/1999/02/22-rdf-syntax-ns#">
   <cc:Work>
    <dc:type rdf:resource="http://purl.org/dc/dcmitype/StillImage"/>
    <dc:date>2025-06-27T17:29:58.044685</dc:date>
    <dc:format>image/svg+xml</dc:format>
    <dc:creator>
     <cc:Agent>
      <dc:title>Matplotlib v3.7.2, https://matplotlib.org/</dc:title>
     </cc:Agent>
    </dc:creator>
   </cc:Work>
  </rdf:RDF>
 </metadata>
 <defs>
  <style type="text/css">*{stroke-linejoin: round; stroke-linecap: butt}</style>
 </defs>
 <g id="figure_1">
  <g id="patch_1">
   <path d="M 0 597.6 
L 720 597.6 
L 720 0 
L 0 0 
z
" style="fill: #ffffff"/>
  </g>
  <g id="axes_1">
   <g id="patch_2">
    <path d="M 71.604864 275.1284 
L 324.422864 275.1284 
L 324.422864 22.3104 
L 71.604864 22.3104 
z
" style="fill: #ffffff"/>
   </g>
   <g id="patch_3">
    <path d="M 240.150197 115.010333 
C 242.385134 115.010333 244.528835 114.122383 246.109174 112.542044 
C 247.689514 110.961705 248.577464 108.818004 248.577464 106.583067 
C 248.577464 104.348129 247.689514 102.204429 246.109174 100.624089 
C 244.528835 99.04375 242.385134 98.1558 240.150197 98.1558 
C 237.91526 98.1558 235.771559 99.04375 234.19122 100.624089 
C 232.61088 102.204429 231.72293 104.348129 231.72293 106.583067 
C 231.72293 108.818004 232.61088 110.961705 234.19122 112.542044 
C 235.771559 114.122383 237.91526 115.010333 240.150197 115.010333 
z
" clip-path="url(#p8b560db016)" style="fill: #bfbf00; stroke: #bfbf00; stroke-width: 2; stroke-linejoin: miter"/>
   </g>
   <g id="PathCollection_1">
    <defs>
     <path id="m040124692c" d="M -10.10808 -0.120709 
L -3.956183 0.864494 
L -3.787896 -0.186339 
L -1.894277 0.116917 
L -2.599661 4.521611 
L 1.615475 5.196662 
L 1.35185 6.842809 
L -1.208446 6.432775 
L -1.710183 9.565765 
L 4.441723 10.550981 
L 4.943462 7.41798 
L 2.383175 7.00796 
L 2.646799 5.361813 
L 6.861937 6.036851 
L 8.437983 -3.80444 
L 4.222847 -4.47949 
L 4.485052 -6.116774 
L 7.045339 -5.706753 
L 7.547171 -8.840338 
L 1.395275 -9.825541 
L 0.893431 -6.691959 
L 3.45373 -6.281936 
L 3.191523 -4.644641 
L -1.023614 -5.31968 
L -1.72901 -0.914987 
L -3.622651 -1.218247 
L -3.454353 -2.269079 
L -9.606261 -3.254284 
L -10.10808 -0.120709 
z
" style="stroke: #0000ff"/>
    </defs>
    <g clip-path="url(#p8b560db016)">
     <use xlink:href="#m040124692c" x="233.167606" y="104.820955" style="fill: #0000ff; stroke: #0000ff"/>
    </g>
   </g>
   <g id="matplotlib.axis_1">
    <g id="xtick_1">
     <g id="line2d_1">
      <defs>
       <path id="mbd15499e63" d="M 0 0 
L 0 3.5 
" style="stroke: #000000; stroke-width: 0.8"/>
      </defs>
      <g>
       <use xlink:href="#mbd15499e63" x="71.604864" y="275.1284" style="stroke: #000000; stroke-width: 0.8"/>
      </g>
     </g>
     <g id="text_1">
      <!-- −4 -->
      <g transform="translate(64.23377 289.726838) scale(0.1 -0.1)">
       <defs>
        <path id="DejaVuSans-2212" d="M 678 2272 
L 4684 2272 
L 4684 1741 
L 678 1741 
L 678 2272 
z
" transform="scale(0.015625)"/>
        <path id="DejaVuSans-34" d="M 2419 4116 
L 825 1625 
L 2419 1625 
L 2419 4116 
z
M 2253 4666 
L 3047 4666 
L 3047 1625 
L 3713 1625 
L 3713 1100 
L 3047 1100 
L 3047 0 
L 2419 0 
L 2419 1100 
L 313 1100 
L 313 1709 
L 2253 4666 
z
" transform="scale(0.015625)"/>
       </defs>
       <use xlink:href="#DejaVuSans-2212"/>
       <use xlink:href="#DejaVuSans-34" x="83.789062"/>
      </g>
     </g>
    </g>
    <g id="xtick_2">
     <g id="line2d_2">
      <g>
       <use xlink:href="#mbd15499e63" x="113.741197" y="275.1284" style="stroke: #000000; stroke-width: 0.8"/>
      </g>
     </g>
     <g id="text_2">
      <!-- −3 -->
      <g transform="translate(106.370103 289.726838) scale(0.1 -0.1)">
       <defs>
        <path id="DejaVuSans-33" d="M 2597 2516 
Q 3050 2419 3304 2112 
Q 3559 1806 3559 1356 
Q 3559 666 3084 287 
Q 2609 -91 1734 -91 
Q 1441 -91 1130 -33 
Q 819 25 488 141 
L 488 750 
Q 750 597 1062 519 
Q 1375 441 1716 441 
Q 2309 441 2620 675 
Q 2931 909 2931 1356 
Q 2931 1769 2642 2001 
Q 2353 2234 1838 2234 
L 1294 2234 
L 1294 2753 
L 1863 2753 
Q 2328 2753 2575 2939 
Q 2822 3125 2822 3475 
Q 2822 3834 2567 4026 
Q 2313 4219 1838 4219 
Q 1578 4219 1281 4162 
Q 984 4106 628 3988 
L 628 4550 
Q 988 4650 1302 4700 
Q 1616 4750 1894 4750 
Q 2613 4750 3031 4423 
Q 3450 4097 3450 3541 
Q 3450 3153 3228 2886 
Q 3006 2619 2597 2516 
z
" transform="scale(0.015625)"/>
       </defs>
       <use xlink:href="#DejaVuSans-2212"/>
       <use xlink:href="#DejaVuSans-33" x="83.789062"/>
      </g>
     </g>
    </g>
    <g id="xtick_3">
     <g id="line2d_3">
      <g>
       <use xlink:href="#mbd15499e63" x="155.87753" y="275.1284" style="stroke: #000000; stroke-width: 0.8"/>
      </g>
     </g>
     <g id="text_3">
      <!-- −2 -->
      <g transform="translate(148.506437 289.726838) scale(0.1 -0.1)">
       <defs>
        <path id="DejaVuSans-32" d="M 1228 531 
L 3431 531 
L 3431 0 
L 469 0 
L 469 531 
Q 828 903 1448 1529 
Q 2069 2156 2228 2338 
Q 2531 2678 2651 2914 
Q 2772 3150 2772 3378 
Q 2772 3750 2511 3984 
Q 2250 4219 1831 4219 
Q 1534 4219 1204 4116 
Q 875 4013 500 3803 
L 500 4441 
Q 881 4594 1212 4672 
Q 1544 4750 1819 4750 
Q 2544 4750 2975 4387 
Q 3406 4025 3406 3419 
Q 3406 3131 3298 2873 
Q 3191 2616 2906 2266 
Q 2828 2175 2409 1742 
Q 1991 1309 1228 531 
z
" transform="scale(0.015625)"/>
       </defs>
       <use xlink:href="#DejaVuSans-2212"/>
       <use xlink:href="#DejaVuSans-32" x="83.789062"/>
      </g>
     </g>
    </g>
    <g id="xtick_4">
     <g id="line2d_4">
      <g>
       <use xlink:href="#mbd15499e63" x="198.013864" y="275.1284" style="stroke: #000000; stroke-width: 0.8"/>
      </g>
     </g>
     <g id="text_4">
      <!-- −1 -->
      <g transform="translate(190.64277 289.726838) scale(0.1 -0.1)">
       <defs>
        <path id="DejaVuSans-31" d="M 794 531 
L 1825 531 
L 1825 4091 
L 703 3866 
L 703 4441 
L 1819 4666 
L 2450 4666 
L 2450 531 
L 3481 531 
L 3481 0 
L 794 0 
L 794 531 
z
" transform="scale(0.015625)"/>
       </defs>
       <use xlink:href="#DejaVuSans-2212"/>
       <use xlink:href="#DejaVuSans-31" x="83.789062"/>
      </g>
     </g>
    </g>
    <g id="xtick_5">
     <g id="line2d_5">
      <g>
       <use xlink:href="#mbd15499e63" x="240.150197" y="275.1284" style="stroke: #000000; stroke-width: 0.8"/>
      </g>
     </g>
     <g id="text_5">
      <!-- 0 -->
      <g transform="translate(236.968947 289.726838) scale(0.1 -0.1)">
       <defs>
        <path id="DejaVuSans-30" d="M 2034 4250 
Q 1547 4250 1301 3770 
Q 1056 3291 1056 2328 
Q 1056 1369 1301 889 
Q 1547 409 2034 409 
Q 2525 409 2770 889 
Q 3016 1369 3016 2328 
Q 3016 3291 2770 3770 
Q 2525 4250 2034 4250 
z
M 2034 4750 
Q 2819 4750 3233 4129 
Q 3647 3509 3647 2328 
Q 3647 1150 3233 529 
Q 2819 -91 2034 -91 
Q 1250 -91 836 529 
Q 422 1150 422 2328 
Q 422 3509 836 4129 
Q 1250 4750 2034 4750 
z
" transform="scale(0.015625)"/>
       </defs>
       <use xlink:href="#DejaVuSans-30"/>
      </g>
     </g>
    </g>
    <g id="xtick_6">
     <g id="line2d_6">
      <g>
       <use xlink:href="#mbd15499e63" x="282.28653" y="275.1284" style="stroke: #000000; stroke-width: 0.8"/>
      </g>
     </g>
     <g id="text_6">
      <!-- 1 -->
      <g transform="translate(279.10528 289.726838) scale(0.1 -0.1)">
       <use xlink:href="#DejaVuSans-31"/>
      </g>
     </g>
    </g>
    <g id="xtick_7">
     <g id="line2d_7">
      <g>
       <use xlink:href="#mbd15499e63" x="324.422864" y="275.1284" style="stroke: #000000; stroke-width: 0.8"/>
      </g>
     </g>
     <g id="text_7">
      <!-- 2 -->
      <g transform="translate(321.241614 289.726838) scale(0.1 -0.1)">
       <use xlink:href="#DejaVuSans-32"/>
      </g>
     </g>
    </g>
    <g id="text_8">
     <!-- x [m] -->
     <g transform="translate(184.693551 303.404963) scale(0.1 -0.1)">
      <defs>
       <path id="DejaVuSans-78" d="M 3513 3500 
L 2247 1797 
L 3578 0 
L 2900 0 
L 1881 1375 
L 863 0 
L 184 0 
L 1544 1831 
L 300 3500 
L 978 3500 
L 1906 2253 
L 2834 3500 
L 3513 3500 
z
" transform="scale(0.015625)"/>
       <path id="DejaVuSans-20" transform="scale(0.015625)"/>
       <path id="DejaVuSans-5b" d="M 550 4863 
L 1875 4863 
L 1875 4416 
L 1125 4416 
L 1125 -397 
L 1875 -397 
L 1875 -844 
L 550 -844 
L 550 4863 
z
" transform="scale(0.015625)"/>
       <path id="DejaVuSans-6d" d="M 3328 2828 
Q 3544 3216 3844 3400 
Q 4144 3584 4550 3584 
Q 5097 3584 5394 3201 
Q 5691 2819 5691 2113 
L 5691 0 
L 5113 0 
L 5113 2094 
Q 5113 2597 4934 2840 
Q 4756 3084 4391 3084 
Q 3944 3084 3684 2787 
Q 3425 2491 3425 1978 
L 3425 0 
L 2847 0 
L 2847 2094 
Q 2847 2600 2669 2842 
Q 2491 3084 2119 3084 
Q 1678 3084 1418 2786 
Q 1159 2488 1159 1978 
L 1159 0 
L 581 0 
L 581 3500 
L 1159 3500 
L 1159 2956 
Q 1356 3278 1631 3431 
Q 1906 3584 2284 3584 
Q 2666 3584 2933 3390 
Q 3200 3197 3328 2828 
z
" transform="scale(0.015625)"/>
       <path id="DejaVuSans-5d" d="M 1947 4863 
L 1947 -844 
L 622 -844 
L 622 -397 
L 1369 -397 
L 1369 4416 
L 622 4416 
L 622 4863 
L 1947 4863 
z
" transform="scale(0.015625)"/>
      </defs>
      <use xlink:href="#DejaVuSans-78"/>
      <use xlink:href="#DejaVuSans-20" x="59.179688"/>
      <use xlink:href="#DejaVuSans-5b" x="90.966797"/>
      <use xlink:href="#DejaVuSans-6d" x="129.980469"/>
      <use xlink:href="#DejaVuSans-5d" x="227.392578"/>
     </g>
    </g>
   </g>
   <g id="matplotlib.axis_2">
    <g id="ytick_1">
     <g id="line2d_8">
      <defs>
       <path id="m0524013861" d="M 0 0 
L -3.5 0 
" style="stroke: #000000; stroke-width: 0.8"/>
      </defs>
      <g>
       <use xlink:href="#m0524013861" x="71.604864" y="275.1284" style="stroke: #000000; stroke-width: 0.8"/>
      </g>
     </g>
     <g id="text_9">
      <!-- −4 -->
      <g transform="translate(49.862676 278.927619) scale(0.1 -0.1)">
       <use xlink:href="#DejaVuSans-2212"/>
       <use xlink:href="#DejaVuSans-34" x="83.789062"/>
      </g>
     </g>
    </g>
    <g id="ytick_2">
     <g id="line2d_9">
      <g>
       <use xlink:href="#m0524013861" x="71.604864" y="232.992067" style="stroke: #000000; stroke-width: 0.8"/>
      </g>
     </g>
     <g id="text_10">
      <!-- −3 -->
      <g transform="translate(49.862676 236.791285) scale(0.1 -0.1)">
       <use xlink:href="#DejaVuSans-2212"/>
       <use xlink:href="#DejaVuSans-33" x="83.789062"/>
      </g>
     </g>
    </g>
    <g id="ytick_3">
     <g id="line2d_10">
      <g>
       <use xlink:href="#m0524013861" x="71.604864" y="190.855733" style="stroke: #000000; stroke-width: 0.8"/>
      </g>
     </g>
     <g id="text_11">
      <!-- −2 -->
      <g transform="translate(49.862676 194.654952) scale(0.1 -0.1)">
       <use xlink:href="#DejaVuSans-2212"/>
       <use xlink:href="#DejaVuSans-32" x="83.789062"/>
      </g>
     </g>
    </g>
    <g id="ytick_4">
     <g id="line2d_11">
      <g>
       <use xlink:href="#m0524013861" x="71.604864" y="148.7194" style="stroke: #000000; stroke-width: 0.8"/>
      </g>
     </g>
     <g id="text_12">
      <!-- −1 -->
      <g transform="translate(49.862676 152.518619) scale(0.1 -0.1)">
       <use xlink:href="#DejaVuSans-2212"/>
       <use xlink:href="#DejaVuSans-31" x="83.789062"/>
      </g>
     </g>
    </g>
    <g id="ytick_5">
     <g id="line2d_12">
      <g>
       <use xlink:href="#m0524013861" x="71.604864" y="106.583067" style="stroke: #000000; stroke-width: 0.8"/>
      </g>
     </g>
     <g id="text_13">
      <!-- 0 -->
      <g transform="translate(58.242364 110.382285) scale(0.1 -0.1)">
       <use xlink:href="#DejaVuSans-30"/>
      </g>
     </g>
    </g>
    <g id="ytick_6">
     <g id="line2d_13">
      <g>
       <use xlink:href="#m0524013861" x="71.604864" y="64.446733" style="stroke: #000000; stroke-width: 0.8"/>
      </g>
     </g>
     <g id="text_14">
      <!-- 1 -->
      <g transform="translate(58.242364 68.245952) scale(0.1 -0.1)">
       <use xlink:href="#DejaVuSans-31"/>
      </g>
     </g>
    </g>
    <g id="ytick_7">
     <g id="line2d_14">
      <g>
       <use xlink:href="#m0524013861" x="71.604864" y="22.3104" style="stroke: #000000; stroke-width: 0.8"/>
      </g>
     </g>
     <g id="text_15">
      <!-- 2 -->
      <g transform="translate(58.242364 26.109619) scale(0.1 -0.1)">
       <use xlink:href="#DejaVuSans-32"/>
      </g>
     </g>
    </g>
    <g id="text_16">
     <!-- y [m] -->
     <g transform="translate(43.782989 162.039713) rotate(-90) scale(0.1 -0.1)">
      <defs>
       <path id="DejaVuSans-79" d="M 2059 -325 
Q 1816 -950 1584 -1140 
Q 1353 -1331 966 -1331 
L 506 -1331 
L 506 -850 
L 844 -850 
Q 1081 -850 1212 -737 
Q 1344 -625 1503 -206 
L 1606 56 
L 191 3500 
L 800 3500 
L 1894 763 
L 2988 3500 
L 3597 3500 
L 2059 -325 
z
" transform="scale(0.015625)"/>
      </defs>
      <use xlink:href="#DejaVuSans-79"/>
      <use xlink:href="#DejaVuSans-20" x="59.179688"/>
      <use xlink:href="#DejaVuSans-5b" x="90.966797"/>
      <use xlink:href="#DejaVuSans-6d" x="129.980469"/>
      <use xlink:href="#DejaVuSans-5d" x="227.392578"/>
     </g>
    </g>
   </g>
   <g id="line2d_15">
    <path d="M 71.604864 106.583067 
L 324.422864 106.583067 
" clip-path="url(#p8b560db016)" style="fill: none; stroke-dasharray: 2.775,1.2; stroke-dashoffset: 0; stroke: #000000; stroke-width: 0.75"/>
   </g>
   <g id="line2d_16">
    <path d="M 240.150197 275.1284 
L 240.150197 22.3104 
" clip-path="url(#p8b560db016)" style="fill: none; stroke-dasharray: 2.775,1.2; stroke-dashoffset: 0; stroke: #000000; stroke-width: 0.75"/>
   </g>
   <g id="line2d_17">
    <path d="M 113.741199 232.989671 
L 113.741218 232.965717 
L 113.741442 232.726177 
L 113.743364 231.528479 
L 113.746626 230.330783 
L 113.75123 229.133091 
L 113.757174 227.935406 
L 113.764459 226.737727 
L 113.773084 225.540058 
L 113.783051 224.342399 
L 113.794358 223.144752 
L 113.807006 221.947119 
L 113.820994 220.7495 
L 113.836324 219.551898 
L 113.852994 218.354314 
L 113.871004 217.156749 
L 113.890356 215.959205 
L 113.911047 214.761683 
L 113.93308 213.564186 
L 113.956453 212.366713 
L 113.981166 211.169268 
L 114.00722 209.971851 
L 114.034615 208.774464 
L 114.06335 207.577109 
L 114.093425 206.379786 
L 114.124841 205.182498 
L 114.157596 203.985245 
L 114.191693 202.78803 
L 114.227129 201.590854 
L 114.263906 200.393719 
L 114.302022 199.196625 
L 114.341479 197.999575 
L 114.382276 196.80257 
L 114.424413 195.605611 
L 114.46789 194.4087 
L 114.512706 193.211838 
L 114.558863 192.015028 
L 114.606359 190.81827 
L 114.655195 189.621565 
L 114.705371 188.424916 
L 114.756886 187.228324 
L 114.80974 186.031791 
L 114.863935 184.835317 
L 114.919468 183.638905 
L 114.976341 182.442556 
L 115.034553 181.246271 
L 115.094104 180.050052 
L 115.154995 178.853901 
L 115.217224 177.657818 
L 115.280792 176.461806 
L 115.345699 175.265866 
L 115.411945 174.069999 
L 115.47953 172.874207 
L 115.548453 171.678491 
L 115.618715 170.482854 
L 115.690315 169.287295 
L 115.763254 168.091818 
L 115.837531 166.896423 
L 115.913146 165.701112 
L 115.990099 164.505887 
L 116.06839 163.310748 
L 116.148019 162.115697 
L 116.228985 160.920737 
L 116.31129 159.725868 
L 116.394932 158.531092 
L 116.479911 157.33641 
L 116.566228 156.141824 
L 116.653882 154.947336 
L 116.742873 153.752946 
L 116.833201 152.558657 
L 116.924866 151.364469 
L 117.017868 150.170385 
L 117.112207 148.976406 
L 117.207882 147.782533 
L 117.304893 146.588768 
L 117.403241 145.395113 
L 117.502925 144.201568 
L 117.603945 143.008135 
L 117.706301 141.814817 
L 117.809993 140.621613 
L 117.915021 139.428527 
L 118.021384 138.235559 
L 118.129083 137.042711 
L 118.238117 135.849984 
L 118.348486 134.657379 
L 118.46019 133.4649 
L 118.573229 132.272545 
L 118.687603 131.080319 
L 118.803311 129.888221 
L 119.408768 125.586045 
L 120.488987 121.080585 
L 122.019425 116.707659 
L 124.005304 112.52206 
L 126.431467 108.575487 
L 129.279314 104.921589 
L 132.513831 101.605096 
L 136.095215 98.666573 
L 139.974705 96.134133 
L 144.100076 94.025948 
L 148.419242 92.348582 
L 152.879547 91.094687 
L 157.436197 90.250834 
L 162.046679 89.787904 
L 166.680184 89.678917 
L 171.3099 89.881038 
L 175.920204 90.361463 
L 180.499894 91.072192 
L 185.045525 91.980635 
L 189.557602 93.040049 
L 194.040099 94.221412 
L 198.500065 95.482885 
L 202.944393 96.800238 
L 207.382104 98.138099 
L 211.63812 99.422371 
L 215.883401 100.67506 
L 219.13631 101.602947 
L 222.300731 102.457922 
L 224.71394 103.071792 
L 227.060397 103.626111 
L 228.844916 104.016506 
L 230.578429 104.364635 
L 231.892561 104.606682 
L 233.167606 104.820955 
" clip-path="url(#p8b560db016)" style="fill: none; stroke-dasharray: 1.85,0.8; stroke-dashoffset: 0; stroke: #0000ff; stroke-width: 0.5"/>
   </g>
   <g id="patch_4">
    <path d="M 71.604864 275.1284 
L 71.604864 22.3104 
" style="fill: none; stroke: #000000; stroke-width: 0.8; stroke-linejoin: miter; stroke-linecap: square"/>
   </g>
   <g id="patch_5">
    <path d="M 324.422864 275.1284 
L 324.422864 22.3104 
" style="fill: none; stroke: #000000; stroke-width: 0.8; stroke-linejoin: miter; stroke-linecap: square"/>
   </g>
   <g id="patch_6">
    <path d="M 71.604864 275.1284 
L 324.422864 275.1284 
" style="fill: none; stroke: #000000; stroke-width: 0.8; stroke-linejoin: miter; stroke-linecap: square"/>
   </g>
   <g id="patch_7">
    <path d="M 71.604864 22.3104 
L 324.422864 22.3104 
" style="fill: none; stroke: #000000; stroke-width: 0.8; stroke-linejoin: miter; stroke-linecap: square"/>
   </g>
   <g id="text_17">
    <!-- Target -->
    <g transform="translate(294.084704 50.351575) scale(0.1 -0.1)">
     <defs>
      <path id="DejaVuSans-54" d="M -19 4666 
L 3928 4666 
L 3928 4134 
L 2272 4134 
L 2272 0 
L 1638 0 
L 1638 4134 
L -19 4134 
L -19 4666 
z
" transform="scale(0.015625)"/>
      <path id="DejaVuSans-61" d="M 2194 1759 
Q 1497 1759 1228 1600 
Q 959 1441 959 1056 
Q 959 750 1161 570 
Q 1363 391 1709 391 
Q 2188 391 2477 730 
Q 2766 1069 2766 1631 
L 2766 1759 
L 2194 1759 
z
M 3341 1997 
L 3341 0 
L 2766 0 
L 2766 531 
Q 2569 213 2275 61 
Q 1981 -91 1556 -91 
Q 1019 -91 701 211 
Q 384 513 384 1019 
Q 384 1609 779 1909 
Q 1175 2209 1959 2209 
L 2766 2209 
L 2766 2266 
Q 2766 2663 2505 2880 
Q 2244 3097 1772 3097 
Q 1472 3097 1187 3025 
Q 903 2953 641 2809 
L 641 3341 
Q 956 3463 1253 3523 
Q 1550 3584 1831 3584 
Q 2591 3584 2966 3190 
Q 3341 2797 3341 1997 
z
" transform="scale(0.015625)"/>
      <path id="DejaVuSans-72" d="M 2631 2963 
Q 2534 3019 2420 3045 
Q 2306 3072 2169 3072 
Q 1681 3072 1420 2755 
Q 1159 2438 1159 1844 
L 1159 0 
L 581 0 
L 581 3500 
L 1159 3500 
L 1159 2956 
Q 1341 3275 1631 3429 
Q 1922 3584 2338 3584 
Q 2397 3584 2469 3576 
Q 2541 3569 2628 3553 
L 2631 2963 
z
" transform="scale(0.015625)"/>
      <path id="DejaVuSans-67" d="M 2906 1791 
Q 2906 2416 2648 2759 
Q 2391 3103 1925 3103 
Q 1463 3103 1205 2759 
Q 947 2416 947 1791 
Q 947 1169 1205 825 
Q 1463 481 1925 481 
Q 2391 481 2648 825 
Q 2906 1169 2906 1791 
z
M 3481 434 
Q 3481 -459 3084 -895 
Q 2688 -1331 1869 -1331 
Q 1566 -1331 1297 -1286 
Q 1028 -1241 775 -1147 
L 775 -588 
Q 1028 -725 1275 -790 
Q 1522 -856 1778 -856 
Q 2344 -856 2625 -561 
Q 2906 -266 2906 331 
L 2906 616 
Q 2728 306 2450 153 
Q 2172 0 1784 0 
Q 1141 0 747 490 
Q 353 981 353 1791 
Q 353 2603 747 3093 
Q 1141 3584 1784 3584 
Q 2172 3584 2450 3431 
Q 2728 3278 2906 2969 
L 2906 3500 
L 3481 3500 
L 3481 434 
z
" transform="scale(0.015625)"/>
      <path id="DejaVuSans-65" d="M 3597 1894 
L 3597 1613 
L 953 1613 
Q 991 1019 1311 708 
Q 1631 397 2203 397 
Q 2534 397 2845 478 
Q 3156 559 3463 722 
L 3463 178 
Q 3153 47 2828 -22 
Q 2503 -91 2169 -91 
Q 1331 -91 842 396 
Q 353 884 353 1716 
Q 353 2575 817 3079 
Q 1281 3584 2069 3584 
Q 2775 3584 3186 3129 
Q 3597 2675 3597 1894 
z
M 3022 2063 
Q 3016 2534 2758 2815 
Q 2500 3097 2075 3097 
Q 1594 3097 1305 2825 
Q 1016 2553 972 2059 
L 3022 2063 
z
" transform="scale(0.015625)"/>
      <path id="DejaVuSans-74" d="M 1172 4494 
L 1172 3500 
L 2356 3500 
L 2356 3053 
L 1172 3053 
L 1172 1153 
Q 1172 725 1289 603 
Q 1406 481 1766 481 
L 2356 481 
L 2356 0 
L 1766 0 
Q 1100 0 847 248 
Q 594 497 594 1153 
L 594 3053 
L 172 3053 
L 172 3500 
L 594 3500 
L 594 4494 
L 1172 4494 
z
" transform="scale(0.015625)"/>
     </defs>
     <use xlink:href="#DejaVuSans-54"/>
     <use xlink:href="#DejaVuSans-61" x="44.583984"/>
     <use xlink:href="#DejaVuSans-72" x="105.863281"/>
     <use xlink:href="#DejaVuSans-67" x="145.226562"/>
     <use xlink:href="#DejaVuSans-65" x="208.703125"/>
     <use xlink:href="#DejaVuSans-74" x="270.226562"/>
    </g>
   </g>
   <g id="text_18">
    <!-- t = 6.011 -->
    <g transform="translate(84.245764 37.710675) scale(0.1 -0.1)">
     <defs>
      <path id="DejaVuSans-3d" d="M 678 2906 
L 4684 2906 
L 4684 2381 
L 678 2381 
L 678 2906 
z
M 678 1631 
L 4684 1631 
L 4684 1100 
L 678 1100 
L 678 1631 
z
" transform="scale(0.015625)"/>
      <path id="DejaVuSans-36" d="M 2113 2584 
Q 1688 2584 1439 2293 
Q 1191 2003 1191 1497 
Q 1191 994 1439 701 
Q 1688 409 2113 409 
Q 2538 409 2786 701 
Q 3034 994 3034 1497 
Q 3034 2003 2786 2293 
Q 2538 2584 2113 2584 
z
M 3366 4563 
L 3366 3988 
Q 3128 4100 2886 4159 
Q 2644 4219 2406 4219 
Q 1781 4219 1451 3797 
Q 1122 3375 1075 2522 
Q 1259 2794 1537 2939 
Q 1816 3084 2150 3084 
Q 2853 3084 3261 2657 
Q 3669 2231 3669 1497 
Q 3669 778 3244 343 
Q 2819 -91 2113 -91 
Q 1303 -91 875 529 
Q 447 1150 447 2328 
Q 447 3434 972 4092 
Q 1497 4750 2381 4750 
Q 2619 4750 2861 4703 
Q 3103 4656 3366 4563 
z
" transform="scale(0.015625)"/>
      <path id="DejaVuSans-2e" d="M 684 794 
L 1344 794 
L 1344 0 
L 684 0 
L 684 794 
z
" transform="scale(0.015625)"/>
     </defs>
     <use xlink:href="#DejaVuSans-74"/>
     <use xlink:href="#DejaVuSans-20" x="39.208984"/>
     <use xlink:href="#DejaVuSans-3d" x="70.996094"/>
     <use xlink:href="#DejaVuSans-20" x="154.785156"/>
     <use xlink:href="#DejaVuSans-36" x="186.572266"/>
     <use xlink:href="#DejaVuSans-2e" x="250.195312"/>
     <use xlink:href="#DejaVuSans-30" x="281.982422"/>
     <use xlink:href="#DejaVuSans-31" x="345.605469"/>
     <use xlink:href="#DejaVuSans-31" x="409.228516"/>
    </g>
   </g>
   <g id="text_19">
    <!-- Pause - space, q - quit, click - data cursor -->
    <g transform="translate(74.104489 16.3104) scale(0.12 -0.12)">
     <defs>
      <path id="DejaVuSans-50" d="M 1259 4147 
L 1259 2394 
L 2053 2394 
Q 2494 2394 2734 2622 
Q 2975 2850 2975 3272 
Q 2975 3691 2734 3919 
Q 2494 4147 2053 4147 
L 1259 4147 
z
M 628 4666 
L 2053 4666 
Q 2838 4666 3239 4311 
Q 3641 3956 3641 3272 
Q 3641 2581 3239 2228 
Q 2838 1875 2053 1875 
L 1259 1875 
L 1259 0 
L 628 0 
L 628 4666 
z
" transform="scale(0.015625)"/>
      <path id="DejaVuSans-75" d="M 544 1381 
L 544 3500 
L 1119 3500 
L 1119 1403 
Q 1119 906 1312 657 
Q 1506 409 1894 409 
Q 2359 409 2629 706 
Q 2900 1003 2900 1516 
L 2900 3500 
L 3475 3500 
L 3475 0 
L 2900 0 
L 2900 538 
Q 2691 219 2414 64 
Q 2138 -91 1772 -91 
Q 1169 -91 856 284 
Q 544 659 544 1381 
z
M 1991 3584 
L 1991 3584 
z
" transform="scale(0.015625)"/>
      <path id="DejaVuSans-73" d="M 2834 3397 
L 2834 2853 
Q 2591 2978 2328 3040 
Q 2066 3103 1784 3103 
Q 1356 3103 1142 2972 
Q 928 2841 928 2578 
Q 928 2378 1081 2264 
Q 1234 2150 1697 2047 
L 1894 2003 
Q 2506 1872 2764 1633 
Q 3022 1394 3022 966 
Q 3022 478 2636 193 
Q 2250 -91 1575 -91 
Q 1294 -91 989 -36 
Q 684 19 347 128 
L 347 722 
Q 666 556 975 473 
Q 1284 391 1588 391 
Q 1994 391 2212 530 
Q 2431 669 2431 922 
Q 2431 1156 2273 1281 
Q 2116 1406 1581 1522 
L 1381 1569 
Q 847 1681 609 1914 
Q 372 2147 372 2553 
Q 372 3047 722 3315 
Q 1072 3584 1716 3584 
Q 2034 3584 2315 3537 
Q 2597 3491 2834 3397 
z
" transform="scale(0.015625)"/>
      <path id="DejaVuSans-2d" d="M 313 2009 
L 1997 2009 
L 1997 1497 
L 313 1497 
L 313 2009 
z
" transform="scale(0.015625)"/>
      <path id="DejaVuSans-70" d="M 1159 525 
L 1159 -1331 
L 581 -1331 
L 581 3500 
L 1159 3500 
L 1159 2969 
Q 1341 3281 1617 3432 
Q 1894 3584 2278 3584 
Q 2916 3584 3314 3078 
Q 3713 2572 3713 1747 
Q 3713 922 3314 415 
Q 2916 -91 2278 -91 
Q 1894 -91 1617 61 
Q 1341 213 1159 525 
z
M 3116 1747 
Q 3116 2381 2855 2742 
Q 2594 3103 2138 3103 
Q 1681 3103 1420 2742 
Q 1159 2381 1159 1747 
Q 1159 1113 1420 752 
Q 1681 391 2138 391 
Q 2594 391 2855 752 
Q 3116 1113 3116 1747 
z
" transform="scale(0.015625)"/>
      <path id="DejaVuSans-63" d="M 3122 3366 
L 3122 2828 
Q 2878 2963 2633 3030 
Q 2388 3097 2138 3097 
Q 1578 3097 1268 2742 
Q 959 2388 959 1747 
Q 959 1106 1268 751 
Q 1578 397 2138 397 
Q 2388 397 2633 464 
Q 2878 531 3122 666 
L 3122 134 
Q 2881 22 2623 -34 
Q 2366 -91 2075 -91 
Q 1284 -91 818 406 
Q 353 903 353 1747 
Q 353 2603 823 3093 
Q 1294 3584 2113 3584 
Q 2378 3584 2631 3529 
Q 2884 3475 3122 3366 
z
" transform="scale(0.015625)"/>
      <path id="DejaVuSans-2c" d="M 750 794 
L 1409 794 
L 1409 256 
L 897 -744 
L 494 -744 
L 750 256 
L 750 794 
z
" transform="scale(0.015625)"/>
      <path id="DejaVuSans-71" d="M 947 1747 
Q 947 1113 1208 752 
Q 1469 391 1925 391 
Q 2381 391 2643 752 
Q 2906 1113 2906 1747 
Q 2906 2381 2643 2742 
Q 2381 3103 1925 3103 
Q 1469 3103 1208 2742 
Q 947 2381 947 1747 
z
M 2906 525 
Q 2725 213 2448 61 
Q 2172 -91 1784 -91 
Q 1150 -91 751 415 
Q 353 922 353 1747 
Q 353 2572 751 3078 
Q 1150 3584 1784 3584 
Q 2172 3584 2448 3432 
Q 2725 3281 2906 2969 
L 2906 3500 
L 3481 3500 
L 3481 -1331 
L 2906 -1331 
L 2906 525 
z
" transform="scale(0.015625)"/>
      <path id="DejaVuSans-69" d="M 603 3500 
L 1178 3500 
L 1178 0 
L 603 0 
L 603 3500 
z
M 603 4863 
L 1178 4863 
L 1178 4134 
L 603 4134 
L 603 4863 
z
" transform="scale(0.015625)"/>
      <path id="DejaVuSans-6c" d="M 603 4863 
L 1178 4863 
L 1178 0 
L 603 0 
L 603 4863 
z
" transform="scale(0.015625)"/>
      <path id="DejaVuSans-6b" d="M 581 4863 
L 1159 4863 
L 1159 1991 
L 2875 3500 
L 3609 3500 
L 1753 1863 
L 3688 0 
L 2938 0 
L 1159 1709 
L 1159 0 
L 581 0 
L 581 4863 
z
" transform="scale(0.015625)"/>
      <path id="DejaVuSans-64" d="M 2906 2969 
L 2906 4863 
L 3481 4863 
L 3481 0 
L 2906 0 
L 2906 525 
Q 2725 213 2448 61 
Q 2172 -91 1784 -91 
Q 1150 -91 751 415 
Q 353 922 353 1747 
Q 353 2572 751 3078 
Q 1150 3584 1784 3584 
Q 2172 3584 2448 3432 
Q 2725 3281 2906 2969 
z
M 947 1747 
Q 947 1113 1208 752 
Q 1469 391 1925 391 
Q 2381 391 2643 752 
Q 2906 1113 2906 1747 
Q 2906 2381 2643 2742 
Q 2381 3103 1925 3103 
Q 1469 3103 1208 2742 
Q 947 2381 947 1747 
z
" transform="scale(0.015625)"/>
      <path id="DejaVuSans-6f" d="M 1959 3097 
Q 1497 3097 1228 2736 
Q 959 2375 959 1747 
Q 959 1119 1226 758 
Q 1494 397 1959 397 
Q 2419 397 2687 759 
Q 2956 1122 2956 1747 
Q 2956 2369 2687 2733 
Q 2419 3097 1959 3097 
z
M 1959 3584 
Q 2709 3584 3137 3096 
Q 3566 2609 3566 1747 
Q 3566 888 3137 398 
Q 2709 -91 1959 -91 
Q 1206 -91 779 398 
Q 353 888 353 1747 
Q 353 2609 779 3096 
Q 1206 3584 1959 3584 
z
" transform="scale(0.015625)"/>
     </defs>
     <use xlink:href="#DejaVuSans-50"/>
     <use xlink:href="#DejaVuSans-61" x="55.802734"/>
     <use xlink:href="#DejaVuSans-75" x="117.082031"/>
     <use xlink:href="#DejaVuSans-73" x="180.460938"/>
     <use xlink:href="#DejaVuSans-65" x="232.560547"/>
     <use xlink:href="#DejaVuSans-20" x="294.083984"/>
     <use xlink:href="#DejaVuSans-2d" x="325.871094"/>
     <use xlink:href="#DejaVuSans-20" x="361.955078"/>
     <use xlink:href="#DejaVuSans-73" x="393.742188"/>
     <use xlink:href="#DejaVuSans-70" x="445.841797"/>
     <use xlink:href="#DejaVuSans-61" x="509.318359"/>
     <use xlink:href="#DejaVuSans-63" x="570.597656"/>
     <use xlink:href="#DejaVuSans-65" x="625.578125"/>
     <use xlink:href="#DejaVuSans-2c" x="687.101562"/>
     <use xlink:href="#DejaVuSans-20" x="718.888672"/>
     <use xlink:href="#DejaVuSans-71" x="750.675781"/>
     <use xlink:href="#DejaVuSans-20" x="814.152344"/>
     <use xlink:href="#DejaVuSans-2d" x="845.939453"/>
     <use xlink:href="#DejaVuSans-20" x="882.023438"/>
     <use xlink:href="#DejaVuSans-71" x="913.810547"/>
     <use xlink:href="#DejaVuSans-75" x="977.287109"/>
     <use xlink:href="#DejaVuSans-69" x="1040.666016"/>
     <use xlink:href="#DejaVuSans-74" x="1068.449219"/>
     <use xlink:href="#DejaVuSans-2c" x="1107.658203"/>
     <use xlink:href="#DejaVuSans-20" x="1139.445312"/>
     <use xlink:href="#DejaVuSans-63" x="1171.232422"/>
     <use xlink:href="#DejaVuSans-6c" x="1226.212891"/>
     <use xlink:href="#DejaVuSans-69" x="1253.996094"/>
     <use xlink:href="#DejaVuSans-63" x="1281.779297"/>
     <use xlink:href="#DejaVuSans-6b" x="1336.759766"/>
     <use xlink:href="#DejaVuSans-20" x="1394.669922"/>
     <use xlink:href="#DejaVuSans-2d" x="1426.457031"/>
     <use xlink:href="#DejaVuSans-20" x="1462.541016"/>
     <use xlink:href="#DejaVuSans-64" x="1494.328125"/>
     <use xlink:href="#DejaVuSans-61" x="1557.804688"/>
     <use xlink:href="#DejaVuSans-74" x="1619.083984"/>
     <use xlink:href="#DejaVuSans-61" x="1658.292969"/>
     <use xlink:href="#DejaVuSans-20" x="1719.572266"/>
     <use xlink:href="#DejaVuSans-63" x="1751.359375"/>
     <use xlink:href="#DejaVuSans-75" x="1806.339844"/>
     <use xlink:href="#DejaVuSans-72" x="1869.71875"/>
     <use xlink:href="#DejaVuSans-73" x="1910.832031"/>
     <use xlink:href="#DejaVuSans-6f" x="1962.931641"/>
     <use xlink:href="#DejaVuSans-72" x="2024.113281"/>
    </g>
   </g>
  </g>
  <g id="axes_2">
   <g id="patch_8">
    <path d="M 393.790909 275.1284 
L 698.175 275.1284 
L 698.175 22.3104 
L 393.790909 22.3104 
z
" style="fill: #ffffff"/>
   </g>
   <g id="matplotlib.axis_3">
    <g id="xtick_8">
     <g id="line2d_18">
      <g>
       <use xlink:href="#mbd15499e63" x="393.790909" y="275.1284" style="stroke: #000000; stroke-width: 0.8"/>
      </g>
     </g>
     <g id="text_20">
      <!-- 0.0 -->
      <g transform="translate(385.839347 289.726838) scale(0.1 -0.1)">
       <use xlink:href="#DejaVuSans-30"/>
       <use xlink:href="#DejaVuSans-2e" x="63.623047"/>
       <use xlink:href="#DejaVuSans-30" x="95.410156"/>
      </g>
     </g>
    </g>
    <g id="xtick_9">
     <g id="line2d_19">
      <g>
       <use xlink:href="#mbd15499e63" x="431.83892" y="275.1284" style="stroke: #000000; stroke-width: 0.8"/>
      </g>
     </g>
     <g id="text_21">
      <!-- 2.5 -->
      <g transform="translate(423.887358 289.726838) scale(0.1 -0.1)">
       <defs>
        <path id="DejaVuSans-35" d="M 691 4666 
L 3169 4666 
L 3169 4134 
L 1269 4134 
L 1269 2991 
Q 1406 3038 1543 3061 
Q 1681 3084 1819 3084 
Q 2600 3084 3056 2656 
Q 3513 2228 3513 1497 
Q 3513 744 3044 326 
Q 2575 -91 1722 -91 
Q 1428 -91 1123 -41 
Q 819 9 494 109 
L 494 744 
Q 775 591 1075 516 
Q 1375 441 1709 441 
Q 2250 441 2565 725 
Q 2881 1009 2881 1497 
Q 2881 1984 2565 2268 
Q 2250 2553 1709 2553 
Q 1456 2553 1204 2497 
Q 953 2441 691 2322 
L 691 4666 
z
" transform="scale(0.015625)"/>
       </defs>
       <use xlink:href="#DejaVuSans-32"/>
       <use xlink:href="#DejaVuSans-2e" x="63.623047"/>
       <use xlink:href="#DejaVuSans-35" x="95.410156"/>
      </g>
     </g>
    </g>
    <g id="xtick_10">
     <g id="line2d_20">
      <g>
       <use xlink:href="#mbd15499e63" x="469.886932" y="275.1284" style="stroke: #000000; stroke-width: 0.8"/>
      </g>
     </g>
     <g id="text_22">
      <!-- 5.0 -->
      <g transform="translate(461.935369 289.726838) scale(0.1 -0.1)">
       <use xlink:href="#DejaVuSans-35"/>
       <use xlink:href="#DejaVuSans-2e" x="63.623047"/>
       <use xlink:href="#DejaVuSans-30" x="95.410156"/>
      </g>
     </g>
    </g>
    <g id="xtick_11">
     <g id="line2d_21">
      <g>
       <use xlink:href="#mbd15499e63" x="507.934943" y="275.1284" style="stroke: #000000; stroke-width: 0.8"/>
      </g>
     </g>
     <g id="text_23">
      <!-- 7.5 -->
      <g transform="translate(499.983381 289.726838) scale(0.1 -0.1)">
       <defs>
        <path id="DejaVuSans-37" d="M 525 4666 
L 3525 4666 
L 3525 4397 
L 1831 0 
L 1172 0 
L 2766 4134 
L 525 4134 
L 525 4666 
z
" transform="scale(0.015625)"/>
       </defs>
       <use xlink:href="#DejaVuSans-37"/>
       <use xlink:href="#DejaVuSans-2e" x="63.623047"/>
       <use xlink:href="#DejaVuSans-35" x="95.410156"/>
      </g>
     </g>
    </g>
    <g id="xtick_12">
     <g id="line2d_22">
      <g>
       <use xlink:href="#mbd15499e63" x="545.982955" y="275.1284" style="stroke: #000000; stroke-width: 0.8"/>
      </g>
     </g>
     <g id="text_24">
      <!-- 10.0 -->
      <g transform="translate(534.850142 289.726838) scale(0.1 -0.1)">
       <use xlink:href="#DejaVuSans-31"/>
       <use xlink:href="#DejaVuSans-30" x="63.623047"/>
       <use xlink:href="#DejaVuSans-2e" x="127.246094"/>
       <use xlink:href="#DejaVuSans-30" x="159.033203"/>
      </g>
     </g>
    </g>
    <g id="xtick_13">
     <g id="line2d_23">
      <g>
       <use xlink:href="#mbd15499e63" x="584.030966" y="275.1284" style="stroke: #000000; stroke-width: 0.8"/>
      </g>
     </g>
     <g id="text_25">
      <!-- 12.5 -->
      <g transform="translate(572.898153 289.726838) scale(0.1 -0.1)">
       <use xlink:href="#DejaVuSans-31"/>
       <use xlink:href="#DejaVuSans-32" x="63.623047"/>
       <use xlink:href="#DejaVuSans-2e" x="127.246094"/>
       <use xlink:href="#DejaVuSans-35" x="159.033203"/>
      </g>
     </g>
    </g>
    <g id="xtick_14">
     <g id="line2d_24">
      <g>
       <use xlink:href="#mbd15499e63" x="622.078977" y="275.1284" style="stroke: #000000; stroke-width: 0.8"/>
      </g>
     </g>
     <g id="text_26">
      <!-- 15.0 -->
      <g transform="translate(610.946165 289.726838) scale(0.1 -0.1)">
       <use xlink:href="#DejaVuSans-31"/>
       <use xlink:href="#DejaVuSans-35" x="63.623047"/>
       <use xlink:href="#DejaVuSans-2e" x="127.246094"/>
       <use xlink:href="#DejaVuSans-30" x="159.033203"/>
      </g>
     </g>
    </g>
    <g id="xtick_15">
     <g id="line2d_25">
      <g>
       <use xlink:href="#mbd15499e63" x="660.126989" y="275.1284" style="stroke: #000000; stroke-width: 0.8"/>
      </g>
     </g>
     <g id="text_27">
      <!-- 17.5 -->
      <g transform="translate(648.994176 289.726838) scale(0.1 -0.1)">
       <use xlink:href="#DejaVuSans-31"/>
       <use xlink:href="#DejaVuSans-37" x="63.623047"/>
       <use xlink:href="#DejaVuSans-2e" x="127.246094"/>
       <use xlink:href="#DejaVuSans-35" x="159.033203"/>
      </g>
     </g>
    </g>
    <g id="xtick_16">
     <g id="line2d_26">
      <g>
       <use xlink:href="#mbd15499e63" x="698.175" y="275.1284" style="stroke: #000000; stroke-width: 0.8"/>
      </g>
     </g>
     <g id="text_28">
      <!-- 20.0 -->
      <g transform="translate(687.042188 289.726838) scale(0.1 -0.1)">
       <use xlink:href="#DejaVuSans-32"/>
       <use xlink:href="#DejaVuSans-30" x="63.623047"/>
       <use xlink:href="#DejaVuSans-2e" x="127.246094"/>
       <use xlink:href="#DejaVuSans-30" x="159.033203"/>
      </g>
     </g>
    </g>
    <g id="text_29">
     <!-- t [s] -->
     <g transform="translate(535.927486 303.404963) scale(0.1 -0.1)">
      <use xlink:href="#DejaVuSans-74"/>
      <use xlink:href="#DejaVuSans-20" x="39.208984"/>
      <use xlink:href="#DejaVuSans-5b" x="70.996094"/>
      <use xlink:href="#DejaVuSans-73" x="110.009766"/>
      <use xlink:href="#DejaVuSans-5d" x="162.109375"/>
     </g>
    </g>
   </g>
   <g id="matplotlib.axis_4">
    <g id="ytick_8">
     <g id="line2d_27">
      <g>
       <use xlink:href="#m0524013861" x="393.790909" y="263.636673" style="stroke: #000000; stroke-width: 0.8"/>
      </g>
     </g>
     <g id="text_30">
      <!-- −8 -->
      <g transform="translate(372.048722 267.435891) scale(0.1 -0.1)">
       <defs>
        <path id="DejaVuSans-38" d="M 2034 2216 
Q 1584 2216 1326 1975 
Q 1069 1734 1069 1313 
Q 1069 891 1326 650 
Q 1584 409 2034 409 
Q 2484 409 2743 651 
Q 3003 894 3003 1313 
Q 3003 1734 2745 1975 
Q 2488 2216 2034 2216 
z
M 1403 2484 
Q 997 2584 770 2862 
Q 544 3141 544 3541 
Q 544 4100 942 4425 
Q 1341 4750 2034 4750 
Q 2731 4750 3128 4425 
Q 3525 4100 3525 3541 
Q 3525 3141 3298 2862 
Q 3072 2584 2669 2484 
Q 3125 2378 3379 2068 
Q 3634 1759 3634 1313 
Q 3634 634 3220 271 
Q 2806 -91 2034 -91 
Q 1263 -91 848 271 
Q 434 634 434 1313 
Q 434 1759 690 2068 
Q 947 2378 1403 2484 
z
M 1172 3481 
Q 1172 3119 1398 2916 
Q 1625 2713 2034 2713 
Q 2441 2713 2670 2916 
Q 2900 3119 2900 3481 
Q 2900 3844 2670 4047 
Q 2441 4250 2034 4250 
Q 1625 4250 1398 4047 
Q 1172 3844 1172 3481 
z
" transform="scale(0.015625)"/>
       </defs>
       <use xlink:href="#DejaVuSans-2212"/>
       <use xlink:href="#DejaVuSans-38" x="83.789062"/>
      </g>
     </g>
    </g>
    <g id="ytick_9">
     <g id="line2d_28">
      <g>
       <use xlink:href="#m0524013861" x="393.790909" y="234.907355" style="stroke: #000000; stroke-width: 0.8"/>
      </g>
     </g>
     <g id="text_31">
      <!-- −6 -->
      <g transform="translate(372.048722 238.706573) scale(0.1 -0.1)">
       <use xlink:href="#DejaVuSans-2212"/>
       <use xlink:href="#DejaVuSans-36" x="83.789062"/>
      </g>
     </g>
    </g>
    <g id="ytick_10">
     <g id="line2d_29">
      <g>
       <use xlink:href="#m0524013861" x="393.790909" y="206.178036" style="stroke: #000000; stroke-width: 0.8"/>
      </g>
     </g>
     <g id="text_32">
      <!-- −4 -->
      <g transform="translate(372.048722 209.977255) scale(0.1 -0.1)">
       <use xlink:href="#DejaVuSans-2212"/>
       <use xlink:href="#DejaVuSans-34" x="83.789062"/>
      </g>
     </g>
    </g>
    <g id="ytick_11">
     <g id="line2d_30">
      <g>
       <use xlink:href="#m0524013861" x="393.790909" y="177.448718" style="stroke: #000000; stroke-width: 0.8"/>
      </g>
     </g>
     <g id="text_33">
      <!-- −2 -->
      <g transform="translate(372.048722 181.247937) scale(0.1 -0.1)">
       <use xlink:href="#DejaVuSans-2212"/>
       <use xlink:href="#DejaVuSans-32" x="83.789062"/>
      </g>
     </g>
    </g>
    <g id="ytick_12">
     <g id="line2d_31">
      <g>
       <use xlink:href="#m0524013861" x="393.790909" y="148.7194" style="stroke: #000000; stroke-width: 0.8"/>
      </g>
     </g>
     <g id="text_34">
      <!-- 0 -->
      <g transform="translate(380.428409 152.518619) scale(0.1 -0.1)">
       <use xlink:href="#DejaVuSans-30"/>
      </g>
     </g>
    </g>
    <g id="ytick_13">
     <g id="line2d_32">
      <g>
       <use xlink:href="#m0524013861" x="393.790909" y="119.990082" style="stroke: #000000; stroke-width: 0.8"/>
      </g>
     </g>
     <g id="text_35">
      <!-- 2 -->
      <g transform="translate(380.428409 123.789301) scale(0.1 -0.1)">
       <use xlink:href="#DejaVuSans-32"/>
      </g>
     </g>
    </g>
    <g id="ytick_14">
     <g id="line2d_33">
      <g>
       <use xlink:href="#m0524013861" x="393.790909" y="91.260764" style="stroke: #000000; stroke-width: 0.8"/>
      </g>
     </g>
     <g id="text_36">
      <!-- 4 -->
      <g transform="translate(380.428409 95.059982) scale(0.1 -0.1)">
       <use xlink:href="#DejaVuSans-34"/>
      </g>
     </g>
    </g>
    <g id="ytick_15">
     <g id="line2d_34">
      <g>
       <use xlink:href="#m0524013861" x="393.790909" y="62.531445" style="stroke: #000000; stroke-width: 0.8"/>
      </g>
     </g>
     <g id="text_37">
      <!-- 6 -->
      <g transform="translate(380.428409 66.330664) scale(0.1 -0.1)">
       <use xlink:href="#DejaVuSans-36"/>
      </g>
     </g>
    </g>
    <g id="ytick_16">
     <g id="line2d_35">
      <g>
       <use xlink:href="#m0524013861" x="393.790909" y="33.802127" style="stroke: #000000; stroke-width: 0.8"/>
      </g>
     </g>
     <g id="text_38">
      <!-- 8 -->
      <g transform="translate(380.428409 37.601346) scale(0.1 -0.1)">
       <use xlink:href="#DejaVuSans-38"/>
      </g>
     </g>
    </g>
   </g>
   <g id="line2d_36">
    <path d="M 393.790909 148.7194 
L 698.175 148.7194 
" clip-path="url(#pd91a0efa07)" style="fill: none; stroke-dasharray: 2.775,1.2; stroke-dashoffset: 0; stroke: #000000; stroke-width: 0.75"/>
   </g>
   <g id="line2d_37">
    <path d="M 393.792431 87.775891 
L 393.80765 87.781669 
L 393.959842 87.839433 
L 394.720802 88.127622 
L 395.481763 88.41475 
L 396.242723 88.700801 
L 397.003683 88.985758 
L 397.764643 89.269607 
L 398.525604 89.552331 
L 399.286564 89.833913 
L 400.047524 90.114336 
L 400.808484 90.393584 
L 401.569445 90.671639 
L 402.330405 90.948483 
L 403.091365 91.224099 
L 403.852325 91.498468 
L 404.613285 91.771572 
L 405.374246 92.043393 
L 406.135206 92.313912 
L 406.896166 92.583109 
L 407.657126 92.850965 
L 408.418087 93.11746 
L 409.179047 93.382575 
L 409.940007 93.646289 
L 410.700967 93.908581 
L 411.461927 94.16943 
L 412.222888 94.428817 
L 412.983848 94.686718 
L 413.744808 94.943113 
L 414.505768 95.197979 
L 415.266729 95.451294 
L 416.027689 95.703036 
L 416.788649 95.953182 
L 417.549609 96.201709 
L 418.31057 96.448592 
L 419.07153 96.69381 
L 419.83249 96.937337 
L 420.59345 97.179149 
L 421.35441 97.419222 
L 422.115371 97.657531 
L 422.876331 97.89405 
L 423.637291 98.128755 
L 424.398251 98.36162 
L 425.159212 98.592619 
L 425.920172 98.821725 
L 426.681132 99.048912 
L 427.442092 99.274154 
L 428.203052 99.497423 
L 428.964013 99.718692 
L 429.724973 99.937934 
L 430.485933 100.155121 
L 431.246893 100.370224 
L 432.007854 100.583217 
L 432.768814 100.79407 
L 433.529774 101.002754 
L 434.290734 101.209242 
L 435.051695 101.413503 
L 435.812655 101.615508 
L 436.573615 101.815229 
L 437.334575 102.012636 
L 438.095535 102.207699 
L 438.856496 102.400387 
L 439.617456 102.590672 
L 440.378416 102.778523 
L 441.139376 102.963909 
L 441.900337 103.146801 
L 442.661297 103.327168 
L 443.422257 103.50498 
L 444.183217 103.680206 
L 444.944177 103.852815 
L 445.705138 104.022778 
L 446.466098 104.190063 
L 447.227058 104.35464 
L 447.988018 104.516479 
L 448.748979 104.675549 
L 449.509939 104.83182 
L 450.270899 104.985261 
L 451.031859 105.135843 
L 451.79282 105.283536 
L 452.55378 105.42831 
L 453.31474 105.570136 
L 454.0757 105.708983 
L 454.83666 105.844823 
L 455.597621 105.977628 
L 456.358581 106.107367 
L 457.119541 106.234015 
L 457.880501 106.357541 
L 458.641462 106.47792 
L 459.402422 106.595123 
L 460.163382 107.050873 
L 460.924342 107.627503 
L 461.685302 108.299906 
L 462.446263 109.072819 
L 463.207223 109.945701 
L 463.968183 110.918264 
L 464.729143 111.985963 
L 465.490104 113.143596 
L 466.251064 114.38339 
L 467.012024 115.696398 
L 467.772984 117.073214 
L 468.533945 118.503128 
L 469.294905 119.977008 
L 470.055865 121.484546 
L 470.816825 123.018397 
L 471.577785 124.570269 
L 472.338746 126.135279 
L 473.099706 127.70782 
L 473.860666 129.285322 
L 474.621626 130.864666 
L 475.382587 132.444957 
L 476.143547 134.024884 
L 476.904507 135.604473 
L 477.665467 137.18344 
L 478.426427 138.697519 
L 479.187388 140.204982 
L 479.948348 141.357145 
L 480.709308 142.473966 
L 481.470268 143.322613 
L 482.231229 144.144526 
L 482.992189 144.767256 
L 483.753149 145.369803 
L 484.514109 145.82479 
L 485.27507 146.264343 
" clip-path="url(#pd91a0efa07)" style="fill: none; stroke: #0000ff; stroke-width: 0.5; stroke-linecap: square"/>
   </g>
   <g id="line2d_38">
    <path d="M 393.792431 126.166917 
L 393.80765 126.167239 
L 393.959842 126.170455 
L 394.720802 126.186536 
L 395.481763 126.202617 
L 396.242723 126.218698 
L 397.003683 126.234778 
L 397.764643 126.250859 
L 398.525604 126.26694 
L 399.286564 126.283021 
L 400.047524 126.299102 
L 400.808484 126.315183 
L 401.569445 126.331263 
L 402.330405 126.347344 
L 403.091365 126.363425 
L 403.852325 126.379506 
L 404.613285 126.395587 
L 405.374246 126.411667 
L 406.135206 126.427748 
L 406.896166 126.443829 
L 407.657126 126.45991 
L 408.418087 126.475991 
L 409.179047 126.492072 
L 409.940007 126.508152 
L 410.700967 126.524233 
L 411.461927 126.540314 
L 412.222888 126.556395 
L 412.983848 126.572476 
L 413.744808 126.588556 
L 414.505768 126.604637 
L 415.266729 126.620718 
L 416.027689 126.636799 
L 416.788649 126.65288 
L 417.549609 126.668961 
L 418.31057 126.685041 
L 419.07153 126.701122 
L 419.83249 126.717203 
L 420.59345 126.733284 
L 421.35441 126.749365 
L 422.115371 126.765446 
L 422.876331 126.781526 
L 423.637291 126.797607 
L 424.398251 126.813688 
L 425.159212 126.829769 
L 425.920172 126.84585 
L 426.681132 126.86193 
L 427.442092 126.878011 
L 428.203052 126.894092 
L 428.964013 126.910173 
L 429.724973 126.926254 
L 430.485933 126.942335 
L 431.246893 126.958415 
L 432.007854 126.974496 
L 432.768814 126.990577 
L 433.529774 127.006658 
L 434.290734 127.022739 
L 435.051695 127.038819 
L 435.812655 127.0549 
L 436.573615 127.070981 
L 437.334575 127.087062 
L 438.095535 127.103143 
L 438.856496 127.119224 
L 439.617456 127.135304 
L 440.378416 127.151385 
L 441.139376 127.167466 
L 441.900337 127.183547 
L 442.661297 127.199628 
L 443.422257 127.215708 
L 444.183217 127.231789 
L 444.944177 127.24787 
L 445.705138 127.263951 
L 446.466098 127.280032 
L 447.227058 127.296113 
L 447.988018 127.312193 
L 448.748979 127.328274 
L 449.509939 127.344355 
L 450.270899 127.360436 
L 451.031859 127.376517 
L 451.79282 127.392597 
L 452.55378 127.408678 
L 453.31474 127.424759 
L 454.0757 127.44084 
L 454.83666 127.456921 
L 455.597621 127.473002 
L 456.358581 127.489082 
L 457.119541 127.505163 
L 457.880501 127.521244 
L 458.641462 127.537325 
L 459.402422 127.553406 
L 460.163382 128.832695 
L 460.924342 130.238666 
L 461.685302 131.755221 
L 462.446263 133.282867 
L 463.207223 134.869396 
L 463.968183 136.461831 
L 464.729143 138.053445 
L 465.490104 139.644978 
L 466.251064 141.172516 
L 467.012024 142.693636 
L 467.772984 144.09054 
L 468.533945 145.474987 
L 469.294905 146.685406 
L 470.055865 147.878372 
L 470.816825 148.863811 
L 471.577785 149.828439 
L 472.338746 150.570925 
L 473.099706 151.291133 
L 473.860666 151.792459 
L 474.621626 152.271833 
L 475.382587 152.549958 
L 476.143547 152.807901 
L 476.904507 152.892117 
L 477.665467 152.958911 
L 478.426427 152.885088 
L 479.187388 152.797162 
L 479.948348 152.609062 
L 480.709308 152.410915 
L 481.470268 152.172814 
L 482.231229 151.930707 
L 482.992189 151.687787 
L 483.753149 151.444786 
L 484.514109 151.221637 
L 485.27507 151.000478 
" clip-path="url(#pd91a0efa07)" style="fill: none; stroke: #ff0000; stroke-width: 0.5; stroke-linecap: square"/>
   </g>
   <g id="patch_9">
    <path d="M 393.790909 275.1284 
L 393.790909 22.3104 
" style="fill: none; stroke: #000000; stroke-width: 0.8; stroke-linejoin: miter; stroke-linecap: square"/>
   </g>
   <g id="patch_10">
    <path d="M 698.175 275.1284 
L 698.175 22.3104 
" style="fill: none; stroke: #000000; stroke-width: 0.8; stroke-linejoin: miter; stroke-linecap: square"/>
   </g>
   <g id="patch_11">
    <path d="M 393.790909 275.1284 
L 698.175 275.1284 
" style="fill: none; stroke: #000000; stroke-width: 0.8; stroke-linejoin: miter; stroke-linecap: square"/>
   </g>
   <g id="patch_12">
    <path d="M 393.790909 22.3104 
L 698.175 22.3104 
" style="fill: none; stroke: #000000; stroke-width: 0.8; stroke-linejoin: miter; stroke-linecap: square"/>
   </g>
   <g id="legend_1">
    <g id="patch_13">
     <path d="M 603.675 60.088525 
L 691.175 60.088525 
Q 693.175 60.088525 693.175 58.088525 
L 693.175 29.3104 
Q 693.175 27.3104 691.175 27.3104 
L 603.675 27.3104 
Q 601.675 27.3104 601.675 29.3104 
L 601.675 58.088525 
Q 601.675 60.088525 603.675 60.088525 
z
" style="fill: #ffffff; opacity: 0.8; stroke: #cccccc; stroke-linejoin: miter"/>
    </g>
    <g id="line2d_39">
     <path d="M 605.675 35.5104 
L 615.675 35.5104 
L 625.675 35.5104 
" style="fill: none; stroke: #0000ff; stroke-width: 0.5; stroke-linecap: square"/>
    </g>
    <g id="text_39">
     <!-- $\Vert(x,y)\Vert$ [m] -->
     <g transform="translate(633.675 39.0104) scale(0.1 -0.1)">
      <defs>
       <path id="DejaVuSans-2016" d="M 1344 4891 
L 1344 -1509 
L 813 -1509 
L 813 4891 
L 1344 4891 
z
M 2376 4891 
L 2376 -1509 
L 1845 -1509 
L 1845 4891 
L 2376 4891 
z
" transform="scale(0.015625)"/>
       <path id="DejaVuSans-28" d="M 1984 4856 
Q 1566 4138 1362 3434 
Q 1159 2731 1159 2009 
Q 1159 1288 1364 580 
Q 1569 -128 1984 -844 
L 1484 -844 
Q 1016 -109 783 600 
Q 550 1309 550 2009 
Q 550 2706 781 3412 
Q 1013 4119 1484 4856 
L 1984 4856 
z
" transform="scale(0.015625)"/>
       <path id="DejaVuSans-Oblique-78" d="M 3841 3500 
L 2234 1784 
L 3219 0 
L 2559 0 
L 1819 1388 
L 531 0 
L -166 0 
L 1556 1844 
L 641 3500 
L 1300 3500 
L 1972 2234 
L 3144 3500 
L 3841 3500 
z
" transform="scale(0.015625)"/>
       <path id="DejaVuSans-Oblique-79" d="M 1588 -325 
Q 1188 -997 936 -1164 
Q 684 -1331 294 -1331 
L -159 -1331 
L -63 -850 
L 269 -850 
Q 509 -850 678 -719 
Q 847 -588 1056 -206 
L 1234 128 
L 459 3500 
L 1069 3500 
L 1650 819 
L 3256 3500 
L 3859 3500 
L 1588 -325 
z
" transform="scale(0.015625)"/>
       <path id="DejaVuSans-29" d="M 513 4856 
L 1013 4856 
Q 1481 4119 1714 3412 
Q 1947 2706 1947 2009 
Q 1947 1309 1714 600 
Q 1481 -109 1013 -844 
L 513 -844 
Q 928 -128 1133 580 
Q 1338 1288 1338 2009 
Q 1338 2731 1133 3434 
Q 928 4138 513 4856 
z
" transform="scale(0.015625)"/>
      </defs>
      <use xlink:href="#DejaVuSans-2016" transform="translate(0 0.578125)"/>
      <use xlink:href="#DejaVuSans-28" transform="translate(50 0.578125)"/>
      <use xlink:href="#DejaVuSans-Oblique-78" transform="translate(89.013672 0.578125)"/>
      <use xlink:href="#DejaVuSans-2c" transform="translate(148.193359 0.578125)"/>
      <use xlink:href="#DejaVuSans-Oblique-79" transform="translate(199.462891 0.578125)"/>
      <use xlink:href="#DejaVuSans-29" transform="translate(258.642578 0.578125)"/>
      <use xlink:href="#DejaVuSans-2016" transform="translate(297.65625 0.578125)"/>
      <use xlink:href="#DejaVuSans-20" transform="translate(347.65625 0.578125)"/>
      <use xlink:href="#DejaVuSans-5b" transform="translate(379.443359 0.578125)"/>
      <use xlink:href="#DejaVuSans-6d" transform="translate(418.457031 0.578125)"/>
      <use xlink:href="#DejaVuSans-5d" transform="translate(515.869141 0.578125)"/>
     </g>
    </g>
    <g id="line2d_40">
     <path d="M 605.675 50.508838 
L 615.675 50.508838 
L 625.675 50.508838 
" style="fill: none; stroke: #ff0000; stroke-width: 0.5; stroke-linecap: square"/>
    </g>
    <g id="text_40">
     <!-- $\alpha$ [rad] -->
     <g transform="translate(633.675 54.008838) scale(0.1 -0.1)">
      <defs>
       <path id="DejaVuSans-Oblique-3b1" d="M 2619 1628 
L 2622 2350 
Q 2625 3088 2069 3091 
Q 1653 3094 1394 2747 
Q 1069 2319 959 1747 
Q 825 1059 994 731 
Q 1169 397 1547 397 
Q 1966 397 2319 1063 
L 2619 1628 
z
M 2166 3578 
Q 3141 3594 3128 2584 
Q 3128 2584 3616 3500 
L 4128 3500 
L 3119 1603 
L 3109 919 
Q 3109 766 3194 638 
Q 3291 488 3391 488 
L 3669 488 
L 3575 0 
L 3228 0 
Q 2934 0 2722 263 
Q 2622 394 2619 669 
Q 2416 334 2066 50 
Q 1900 -81 1453 -78 
Q 722 -72 456 397 
Q 184 884 353 1747 
Q 534 2675 1009 3097 
Q 1544 3569 2166 3578 
z
" transform="scale(0.015625)"/>
      </defs>
      <use xlink:href="#DejaVuSans-Oblique-3b1" transform="translate(0 0.015625)"/>
      <use xlink:href="#DejaVuSans-20" transform="translate(65.917969 0.015625)"/>
      <use xlink:href="#DejaVuSans-5b" transform="translate(97.705078 0.015625)"/>
      <use xlink:href="#DejaVuSans-72" transform="translate(136.71875 0.015625)"/>
      <use xlink:href="#DejaVuSans-61" transform="translate(177.832031 0.015625)"/>
      <use xlink:href="#DejaVuSans-64" transform="translate(239.111328 0.015625)"/>
      <use xlink:href="#DejaVuSans-5d" transform="translate(302.587891 0.015625)"/>
     </g>
    </g>
   </g>
  </g>
  <g id="axes_3">
   <g id="patch_14">
    <path d="M 45.821818 562.7732 
L 350.205909 562.7732 
L 350.205909 309.9552 
L 45.821818 309.9552 
z
" style="fill: #ffffff"/>
   </g>
   <g id="matplotlib.axis_5">
    <g id="xtick_17">
     <g id="line2d_41">
      <g>
       <use xlink:href="#mbd15499e63" x="45.821818" y="562.7732" style="stroke: #000000; stroke-width: 0.8"/>
      </g>
     </g>
     <g id="text_41">
      <!-- 0.0 -->
      <g transform="translate(37.870256 577.371638) scale(0.1 -0.1)">
       <use xlink:href="#DejaVuSans-30"/>
       <use xlink:href="#DejaVuSans-2e" x="63.623047"/>
       <use xlink:href="#DejaVuSans-30" x="95.410156"/>
      </g>
     </g>
    </g>
    <g id="xtick_18">
     <g id="line2d_42">
      <g>
       <use xlink:href="#mbd15499e63" x="83.86983" y="562.7732" style="stroke: #000000; stroke-width: 0.8"/>
      </g>
     </g>
     <g id="text_42">
      <!-- 2.5 -->
      <g transform="translate(75.918267 577.371638) scale(0.1 -0.1)">
       <use xlink:href="#DejaVuSans-32"/>
       <use xlink:href="#DejaVuSans-2e" x="63.623047"/>
       <use xlink:href="#DejaVuSans-35" x="95.410156"/>
      </g>
     </g>
    </g>
    <g id="xtick_19">
     <g id="line2d_43">
      <g>
       <use xlink:href="#mbd15499e63" x="121.917841" y="562.7732" style="stroke: #000000; stroke-width: 0.8"/>
      </g>
     </g>
     <g id="text_43">
      <!-- 5.0 -->
      <g transform="translate(113.966278 577.371638) scale(0.1 -0.1)">
       <use xlink:href="#DejaVuSans-35"/>
       <use xlink:href="#DejaVuSans-2e" x="63.623047"/>
       <use xlink:href="#DejaVuSans-30" x="95.410156"/>
      </g>
     </g>
    </g>
    <g id="xtick_20">
     <g id="line2d_44">
      <g>
       <use xlink:href="#mbd15499e63" x="159.965852" y="562.7732" style="stroke: #000000; stroke-width: 0.8"/>
      </g>
     </g>
     <g id="text_44">
      <!-- 7.5 -->
      <g transform="translate(152.01429 577.371638) scale(0.1 -0.1)">
       <use xlink:href="#DejaVuSans-37"/>
       <use xlink:href="#DejaVuSans-2e" x="63.623047"/>
       <use xlink:href="#DejaVuSans-35" x="95.410156"/>
      </g>
     </g>
    </g>
    <g id="xtick_21">
     <g id="line2d_45">
      <g>
       <use xlink:href="#mbd15499e63" x="198.013864" y="562.7732" style="stroke: #000000; stroke-width: 0.8"/>
      </g>
     </g>
     <g id="text_45">
      <!-- 10.0 -->
      <g transform="translate(186.881051 577.371638) scale(0.1 -0.1)">
       <use xlink:href="#DejaVuSans-31"/>
       <use xlink:href="#DejaVuSans-30" x="63.623047"/>
       <use xlink:href="#DejaVuSans-2e" x="127.246094"/>
       <use xlink:href="#DejaVuSans-30" x="159.033203"/>
      </g>
     </g>
    </g>
    <g id="xtick_22">
     <g id="line2d_46">
      <g>
       <use xlink:href="#mbd15499e63" x="236.061875" y="562.7732" style="stroke: #000000; stroke-width: 0.8"/>
      </g>
     </g>
     <g id="text_46">
      <!-- 12.5 -->
      <g transform="translate(224.929063 577.371638) scale(0.1 -0.1)">
       <use xlink:href="#DejaVuSans-31"/>
       <use xlink:href="#DejaVuSans-32" x="63.623047"/>
       <use xlink:href="#DejaVuSans-2e" x="127.246094"/>
       <use xlink:href="#DejaVuSans-35" x="159.033203"/>
      </g>
     </g>
    </g>
    <g id="xtick_23">
     <g id="line2d_47">
      <g>
       <use xlink:href="#mbd15499e63" x="274.109886" y="562.7732" style="stroke: #000000; stroke-width: 0.8"/>
      </g>
     </g>
     <g id="text_47">
      <!-- 15.0 -->
      <g transform="translate(262.977074 577.371638) scale(0.1 -0.1)">
       <use xlink:href="#DejaVuSans-31"/>
       <use xlink:href="#DejaVuSans-35" x="63.623047"/>
       <use xlink:href="#DejaVuSans-2e" x="127.246094"/>
       <use xlink:href="#DejaVuSans-30" x="159.033203"/>
      </g>
     </g>
    </g>
    <g id="xtick_24">
     <g id="line2d_48">
      <g>
       <use xlink:href="#mbd15499e63" x="312.157898" y="562.7732" style="stroke: #000000; stroke-width: 0.8"/>
      </g>
     </g>
     <g id="text_48">
      <!-- 17.5 -->
      <g transform="translate(301.025085 577.371638) scale(0.1 -0.1)">
       <use xlink:href="#DejaVuSans-31"/>
       <use xlink:href="#DejaVuSans-37" x="63.623047"/>
       <use xlink:href="#DejaVuSans-2e" x="127.246094"/>
       <use xlink:href="#DejaVuSans-35" x="159.033203"/>
      </g>
     </g>
    </g>
    <g id="xtick_25">
     <g id="line2d_49">
      <g>
       <use xlink:href="#mbd15499e63" x="350.205909" y="562.7732" style="stroke: #000000; stroke-width: 0.8"/>
      </g>
     </g>
     <g id="text_49">
      <!-- 20.0 -->
      <g transform="translate(339.073097 577.371638) scale(0.1 -0.1)">
       <use xlink:href="#DejaVuSans-32"/>
       <use xlink:href="#DejaVuSans-30" x="63.623047"/>
       <use xlink:href="#DejaVuSans-2e" x="127.246094"/>
       <use xlink:href="#DejaVuSans-30" x="159.033203"/>
      </g>
     </g>
    </g>
    <g id="text_50">
     <!-- t[s] -->
     <g transform="translate(189.547457 591.049763) scale(0.1 -0.1)">
      <use xlink:href="#DejaVuSans-74"/>
      <use xlink:href="#DejaVuSans-5b" x="39.208984"/>
      <use xlink:href="#DejaVuSans-73" x="78.222656"/>
      <use xlink:href="#DejaVuSans-5d" x="130.322266"/>
     </g>
    </g>
   </g>
   <g id="matplotlib.axis_6">
    <g id="ytick_17">
     <g id="line2d_50">
      <g>
       <use xlink:href="#m0524013861" x="45.821818" y="562.7732" style="stroke: #000000; stroke-width: 0.8"/>
      </g>
     </g>
     <g id="text_51">
      <!-- $\mathdefault{0}$ -->
      <g transform="translate(32.421818 566.572419) scale(0.1 -0.1)">
       <use xlink:href="#DejaVuSans-30" transform="translate(0 0.78125)"/>
      </g>
     </g>
    </g>
    <g id="ytick_18">
     <g id="line2d_51">
      <g>
       <use xlink:href="#m0524013861" x="45.821818" y="548.827136" style="stroke: #000000; stroke-width: 0.8"/>
      </g>
     </g>
     <g id="text_52">
      <!-- $\mathdefault{10^{0}}$ -->
      <g transform="translate(21.221818 552.626355) scale(0.1 -0.1)">
       <use xlink:href="#DejaVuSans-31" transform="translate(0 0.765625)"/>
       <use xlink:href="#DejaVuSans-30" transform="translate(63.623047 0.765625)"/>
       <use xlink:href="#DejaVuSans-30" transform="translate(128.203125 39.046875) scale(0.7)"/>
      </g>
     </g>
    </g>
    <g id="ytick_19">
     <g id="line2d_52">
      <g>
       <use xlink:href="#m0524013861" x="45.821818" y="517.334887" style="stroke: #000000; stroke-width: 0.8"/>
      </g>
     </g>
     <g id="text_53">
      <!-- $\mathdefault{10^{1}}$ -->
      <g transform="translate(21.221818 521.134105) scale(0.1 -0.1)">
       <use xlink:href="#DejaVuSans-31" transform="translate(0 0.684375)"/>
       <use xlink:href="#DejaVuSans-30" transform="translate(63.623047 0.684375)"/>
       <use xlink:href="#DejaVuSans-31" transform="translate(128.203125 38.965625) scale(0.7)"/>
      </g>
     </g>
    </g>
    <g id="ytick_20">
     <g id="line2d_53">
      <g>
       <use xlink:href="#m0524013861" x="45.821818" y="492.231971" style="stroke: #000000; stroke-width: 0.8"/>
      </g>
     </g>
     <g id="text_54">
      <!-- $\mathdefault{10^{2}}$ -->
      <g transform="translate(21.221818 496.03119) scale(0.1 -0.1)">
       <use xlink:href="#DejaVuSans-31" transform="translate(0 0.765625)"/>
       <use xlink:href="#DejaVuSans-30" transform="translate(63.623047 0.765625)"/>
       <use xlink:href="#DejaVuSans-32" transform="translate(128.203125 39.046875) scale(0.7)"/>
      </g>
     </g>
    </g>
    <g id="ytick_21">
     <g id="line2d_54">
      <g>
       <use xlink:href="#m0524013861" x="45.821818" y="467.129056" style="stroke: #000000; stroke-width: 0.8"/>
      </g>
     </g>
     <g id="text_55">
      <!-- $\mathdefault{10^{3}}$ -->
      <g transform="translate(21.221818 470.928274) scale(0.1 -0.1)">
       <use xlink:href="#DejaVuSans-31" transform="translate(0 0.765625)"/>
       <use xlink:href="#DejaVuSans-30" transform="translate(63.623047 0.765625)"/>
       <use xlink:href="#DejaVuSans-33" transform="translate(128.203125 39.046875) scale(0.7)"/>
      </g>
     </g>
    </g>
    <g id="ytick_22">
     <g id="line2d_55">
      <g>
       <use xlink:href="#m0524013861" x="45.821818" y="442.02614" style="stroke: #000000; stroke-width: 0.8"/>
      </g>
     </g>
     <g id="text_56">
      <!-- $\mathdefault{10^{4}}$ -->
      <g transform="translate(21.221818 445.825359) scale(0.1 -0.1)">
       <use xlink:href="#DejaVuSans-31" transform="translate(0 0.684375)"/>
       <use xlink:href="#DejaVuSans-30" transform="translate(63.623047 0.684375)"/>
       <use xlink:href="#DejaVuSans-34" transform="translate(128.203125 38.965625) scale(0.7)"/>
      </g>
     </g>
    </g>
    <g id="ytick_23">
     <g id="line2d_56">
      <g>
       <use xlink:href="#m0524013861" x="45.821818" y="416.923225" style="stroke: #000000; stroke-width: 0.8"/>
      </g>
     </g>
     <g id="text_57">
      <!-- $\mathdefault{10^{5}}$ -->
      <g transform="translate(21.221818 420.722443) scale(0.1 -0.1)">
       <use xlink:href="#DejaVuSans-31" transform="translate(0 0.684375)"/>
       <use xlink:href="#DejaVuSans-30" transform="translate(63.623047 0.684375)"/>
       <use xlink:href="#DejaVuSans-35" transform="translate(128.203125 38.965625) scale(0.7)"/>
      </g>
     </g>
    </g>
    <g id="ytick_24">
     <g id="line2d_57">
      <g>
       <use xlink:href="#m0524013861" x="45.821818" y="391.820309" style="stroke: #000000; stroke-width: 0.8"/>
      </g>
     </g>
     <g id="text_58">
      <!-- $\mathdefault{10^{6}}$ -->
      <g transform="translate(21.221818 395.619528) scale(0.1 -0.1)">
       <use xlink:href="#DejaVuSans-31" transform="translate(0 0.765625)"/>
       <use xlink:href="#DejaVuSans-30" transform="translate(63.623047 0.765625)"/>
       <use xlink:href="#DejaVuSans-36" transform="translate(128.203125 39.046875) scale(0.7)"/>
      </g>
     </g>
    </g>
    <g id="ytick_25">
     <g id="line2d_58">
      <g>
       <use xlink:href="#m0524013861" x="45.821818" y="366.717394" style="stroke: #000000; stroke-width: 0.8"/>
      </g>
     </g>
     <g id="text_59">
      <!-- $\mathdefault{10^{7}}$ -->
      <g transform="translate(21.221818 370.516612) scale(0.1 -0.1)">
       <use xlink:href="#DejaVuSans-31" transform="translate(0 0.684375)"/>
       <use xlink:href="#DejaVuSans-30" transform="translate(63.623047 0.684375)"/>
       <use xlink:href="#DejaVuSans-37" transform="translate(128.203125 38.965625) scale(0.7)"/>
      </g>
     </g>
    </g>
    <g id="ytick_26">
     <g id="line2d_59">
      <g>
       <use xlink:href="#m0524013861" x="45.821818" y="341.614478" style="stroke: #000000; stroke-width: 0.8"/>
      </g>
     </g>
     <g id="text_60">
      <!-- $\mathdefault{10^{8}}$ -->
      <g transform="translate(21.221818 345.413697) scale(0.1 -0.1)">
       <use xlink:href="#DejaVuSans-31" transform="translate(0 0.765625)"/>
       <use xlink:href="#DejaVuSans-30" transform="translate(63.623047 0.765625)"/>
       <use xlink:href="#DejaVuSans-38" transform="translate(128.203125 39.046875) scale(0.7)"/>
      </g>
     </g>
    </g>
    <g id="ytick_27">
     <g id="line2d_60">
      <g>
       <use xlink:href="#m0524013861" x="45.821818" y="316.511563" style="stroke: #000000; stroke-width: 0.8"/>
      </g>
     </g>
     <g id="text_61">
      <!-- $\mathdefault{10^{9}}$ -->
      <g transform="translate(21.221818 320.310781) scale(0.1 -0.1)">
       <defs>
        <path id="DejaVuSans-39" d="M 703 97 
L 703 672 
Q 941 559 1184 500 
Q 1428 441 1663 441 
Q 2288 441 2617 861 
Q 2947 1281 2994 2138 
Q 2813 1869 2534 1725 
Q 2256 1581 1919 1581 
Q 1219 1581 811 2004 
Q 403 2428 403 3163 
Q 403 3881 828 4315 
Q 1253 4750 1959 4750 
Q 2769 4750 3195 4129 
Q 3622 3509 3622 2328 
Q 3622 1225 3098 567 
Q 2575 -91 1691 -91 
Q 1453 -91 1209 -44 
Q 966 3 703 97 
z
M 1959 2075 
Q 2384 2075 2632 2365 
Q 2881 2656 2881 3163 
Q 2881 3666 2632 3958 
Q 2384 4250 1959 4250 
Q 1534 4250 1286 3958 
Q 1038 3666 1038 3163 
Q 1038 2656 1286 2365 
Q 1534 2075 1959 2075 
z
" transform="scale(0.015625)"/>
       </defs>
       <use xlink:href="#DejaVuSans-31" transform="translate(0 0.765625)"/>
       <use xlink:href="#DejaVuSans-30" transform="translate(63.623047 0.765625)"/>
       <use xlink:href="#DejaVuSans-39" transform="translate(128.203125 39.046875) scale(0.7)"/>
      </g>
     </g>
    </g>
   </g>
   <g id="line2d_61">
    <path d="M 45.82334 460.55359 
L 45.838559 460.55563 
L 45.990751 460.576034 
L 46.751712 460.678118 
L 47.512672 460.780298 
L 48.273632 460.882568 
L 49.034592 460.984921 
L 49.795552 461.087352 
L 50.556513 461.189852 
L 51.317473 461.292414 
L 52.078433 461.395031 
L 52.839393 461.497694 
L 53.600354 461.600397 
L 54.361314 461.70313 
L 55.122274 461.805885 
L 55.883234 461.908654 
L 56.644195 462.011427 
L 57.405155 462.114195 
L 58.166115 462.216948 
L 58.927075 462.319677 
L 59.688035 462.422372 
L 60.448996 462.525022 
L 61.209956 462.627617 
L 61.970916 462.730145 
L 62.731876 462.832596 
L 63.492837 462.934958 
L 64.253797 463.037219 
L 65.014757 463.139367 
L 65.775717 463.24139 
L 66.536677 463.343274 
L 67.297638 463.445007 
L 68.058598 463.546576 
L 68.819558 463.647966 
L 69.580518 463.749163 
L 70.341479 463.850154 
L 71.102439 463.950923 
L 71.863399 464.051455 
L 72.624359 464.151735 
L 73.38532 464.251747 
L 74.14628 464.351475 
L 74.90724 464.450903 
L 75.6682 464.550013 
L 76.42916 464.648788 
L 77.190121 464.747211 
L 77.951081 464.845264 
L 78.712041 464.942929 
L 79.473001 465.040186 
L 80.233962 465.137018 
L 80.994922 465.233404 
L 81.755882 465.329324 
L 82.516842 465.42476 
L 83.277802 465.51969 
L 84.038763 465.614093 
L 84.799723 465.707949 
L 85.560683 465.801236 
L 86.321643 465.893931 
L 87.082604 465.986014 
L 87.843564 466.077461 
L 88.604524 466.168249 
L 89.365484 466.258356 
L 90.126445 466.347758 
L 90.887405 466.436431 
L 91.648365 466.524351 
L 92.409325 466.611494 
L 93.170285 466.697835 
L 93.931246 466.783349 
L 94.692206 466.868011 
L 95.453166 466.951797 
L 96.214126 467.034679 
L 96.975087 467.116633 
L 97.736047 467.197633 
L 98.497007 467.277652 
L 99.257967 467.356664 
L 100.018927 467.434643 
L 100.779888 467.511562 
L 101.540848 467.587394 
L 102.301808 467.662114 
L 103.062768 467.735693 
L 103.823729 467.808106 
L 104.584689 467.879325 
L 105.345649 467.949323 
L 106.106609 468.018075 
L 106.86757 468.085553 
L 107.62853 468.15173 
L 108.38949 468.216581 
L 109.15045 468.280079 
L 109.91141 468.342197 
L 110.672371 468.402911 
L 111.433331 462.664207 
L 112.194291 462.81767 
L 112.955251 463.107665 
L 113.716212 463.329801 
L 114.477172 463.837846 
L 115.238132 464.127224 
L 115.999092 464.875421 
L 116.760052 465.239034 
L 117.521013 466.241009 
L 118.281973 466.684395 
L 119.042933 467.942843 
L 119.803893 468.470779 
L 120.564854 469.980453 
L 121.325814 470.598394 
L 122.086774 472.353293 
L 122.847734 473.069635 
L 123.608695 475.073764 
L 124.369655 475.902946 
L 125.130615 478.183579 
L 125.891575 479.15032 
L 126.652535 481.774327 
L 127.413496 482.920256 
L 128.174456 486.018921 
L 128.935416 487.415218 
L 129.696376 491.234776 
L 130.457337 492.93793 
L 131.218297 497.705729 
L 131.979257 499.447618 
L 132.740217 504.24342 
L 133.501177 505.971436 
L 134.262138 510.771325 
L 135.023098 512.478235 
L 135.784058 517.293904 
L 136.545018 518.973741 
L 137.305979 523.798831 
" clip-path="url(#p101ec623cc)" style="fill: none; stroke: #ff0000; stroke-width: 0.5; stroke-linecap: square"/>
   </g>
   <g id="line2d_62">
    <path d="M 45.82334 434.587932 
L 45.838559 434.487687 
L 45.990751 434.388541 
L 46.751712 434.2912 
L 47.512672 434.195616 
L 48.273632 434.101744 
L 49.034592 434.00954 
L 49.795552 433.91896 
L 50.556513 433.829964 
L 51.317473 433.742512 
L 52.078433 433.656565 
L 52.839393 433.572087 
L 53.600354 433.489041 
L 54.361314 433.407393 
L 55.122274 433.32711 
L 55.883234 433.248158 
L 56.644195 433.170507 
L 57.405155 433.094126 
L 58.166115 433.018986 
L 58.927075 432.945057 
L 59.688035 432.872313 
L 60.448996 432.800725 
L 61.209956 432.730269 
L 61.970916 432.660918 
L 62.731876 432.592648 
L 63.492837 432.525436 
L 64.253797 432.459256 
L 65.014757 432.394088 
L 65.775717 432.329909 
L 66.536677 432.266696 
L 67.297638 432.204431 
L 68.058598 432.143091 
L 68.819558 432.082658 
L 69.580518 432.023112 
L 70.341479 431.964434 
L 71.102439 431.906605 
L 71.863399 431.849608 
L 72.624359 431.793426 
L 73.38532 431.738041 
L 74.14628 431.683436 
L 74.90724 431.629595 
L 75.6682 431.576503 
L 76.42916 431.524143 
L 77.190121 431.472501 
L 77.951081 431.421561 
L 78.712041 431.37131 
L 79.473001 431.321732 
L 80.233962 431.272814 
L 80.994922 431.224542 
L 81.755882 431.176903 
L 82.516842 431.129884 
L 83.277802 431.083472 
L 84.038763 431.037655 
L 84.799723 430.992419 
L 85.560683 430.947753 
L 86.321643 430.903646 
L 87.082604 430.860085 
L 87.843564 430.817058 
L 88.604524 430.774556 
L 89.365484 430.732567 
L 90.126445 430.69108 
L 90.887405 430.650084 
L 91.648365 430.609569 
L 92.409325 430.569525 
L 93.170285 430.529942 
L 93.931246 430.490809 
L 94.692206 430.452118 
L 95.453166 430.413858 
L 96.214126 430.37602 
L 96.975087 430.338595 
L 97.736047 430.301573 
L 98.497007 430.264946 
L 99.257967 430.228705 
L 100.018927 430.192842 
L 100.779888 430.157346 
L 101.540848 430.122211 
L 102.301808 430.087427 
L 103.062768 430.052987 
L 103.823729 430.018882 
L 104.584689 429.985105 
L 105.345649 429.951647 
L 106.106609 429.918501 
L 106.86757 429.885658 
L 107.62853 429.853113 
L 108.38949 429.820856 
L 109.15045 429.788881 
L 109.91141 429.757181 
L 110.672371 429.725747 
L 111.433331 429.672743 
L 112.194291 429.62073 
L 112.955251 429.57032 
L 113.716212 429.521151 
L 114.477172 429.474428 
L 115.238132 429.429119 
L 115.999092 429.386986 
L 116.760052 429.346388 
L 117.521013 429.309487 
L 118.281973 429.274174 
L 119.042933 429.242807 
L 119.803893 429.213006 
L 120.564854 429.187125 
L 121.325814 429.162726 
L 122.086774 429.141998 
L 122.847734 429.122624 
L 123.608695 429.10653 
L 124.369655 429.091635 
L 125.130615 429.079567 
L 125.891575 429.068535 
L 126.652535 429.05987 
L 127.413496 429.052076 
L 128.174456 429.046214 
L 128.935416 429.041059 
L 129.696376 429.037429 
L 130.457337 429.034325 
L 131.218297 429.032321 
L 131.979257 429.030614 
L 132.740217 429.029514 
L 133.501177 429.028575 
L 134.262138 429.027971 
L 135.023098 429.027454 
L 135.784058 429.027122 
L 136.545018 429.026838 
L 137.305979 429.026655 
" clip-path="url(#p101ec623cc)" style="fill: none; stroke: #008000; stroke-width: 0.5; stroke-linecap: square"/>
   </g>
   <g id="patch_15">
    <path d="M 45.821818 562.7732 
L 45.821818 309.9552 
" style="fill: none; stroke: #000000; stroke-width: 0.8; stroke-linejoin: miter; stroke-linecap: square"/>
   </g>
   <g id="patch_16">
    <path d="M 350.205909 562.7732 
L 350.205909 309.9552 
" style="fill: none; stroke: #000000; stroke-width: 0.8; stroke-linejoin: miter; stroke-linecap: square"/>
   </g>
   <g id="patch_17">
    <path d="M 45.821818 562.7732 
L 350.205909 562.7732 
" style="fill: none; stroke: #000000; stroke-width: 0.8; stroke-linejoin: miter; stroke-linecap: square"/>
   </g>
   <g id="patch_18">
    <path d="M 45.821818 309.9552 
L 350.205909 309.9552 
" style="fill: none; stroke: #000000; stroke-width: 0.8; stroke-linejoin: miter; stroke-linecap: square"/>
   </g>
   <g id="legend_2">
    <g id="patch_19">
     <path d="M 245.105909 351.533325 
L 343.205909 351.533325 
Q 345.205909 351.533325 345.205909 349.533325 
L 345.205909 316.9552 
Q 345.205909 314.9552 343.205909 314.9552 
L 245.105909 314.9552 
Q 243.105909 314.9552 243.105909 316.9552 
L 243.105909 349.533325 
Q 243.105909 351.533325 245.105909 351.533325 
z
" style="fill: #ffffff; opacity: 0.8; stroke: #cccccc; stroke-linejoin: miter"/>
    </g>
    <g id="line2d_63">
     <path d="M 247.105909 323.053638 
L 257.105909 323.053638 
L 267.105909 323.053638 
" style="fill: none; stroke: #ff0000; stroke-width: 0.5; stroke-linecap: square"/>
    </g>
    <g id="text_62">
     <!-- Run. obj. -->
     <g transform="translate(275.105909 326.553638) scale(0.1 -0.1)">
      <defs>
       <path id="DejaVuSans-52" d="M 2841 2188 
Q 3044 2119 3236 1894 
Q 3428 1669 3622 1275 
L 4263 0 
L 3584 0 
L 2988 1197 
Q 2756 1666 2539 1819 
Q 2322 1972 1947 1972 
L 1259 1972 
L 1259 0 
L 628 0 
L 628 4666 
L 2053 4666 
Q 2853 4666 3247 4331 
Q 3641 3997 3641 3322 
Q 3641 2881 3436 2590 
Q 3231 2300 2841 2188 
z
M 1259 4147 
L 1259 2491 
L 2053 2491 
Q 2509 2491 2742 2702 
Q 2975 2913 2975 3322 
Q 2975 3731 2742 3939 
Q 2509 4147 2053 4147 
L 1259 4147 
z
" transform="scale(0.015625)"/>
       <path id="DejaVuSans-6e" d="M 3513 2113 
L 3513 0 
L 2938 0 
L 2938 2094 
Q 2938 2591 2744 2837 
Q 2550 3084 2163 3084 
Q 1697 3084 1428 2787 
Q 1159 2491 1159 1978 
L 1159 0 
L 581 0 
L 581 3500 
L 1159 3500 
L 1159 2956 
Q 1366 3272 1645 3428 
Q 1925 3584 2291 3584 
Q 2894 3584 3203 3211 
Q 3513 2838 3513 2113 
z
" transform="scale(0.015625)"/>
       <path id="DejaVuSans-62" d="M 3116 1747 
Q 3116 2381 2855 2742 
Q 2594 3103 2138 3103 
Q 1681 3103 1420 2742 
Q 1159 2381 1159 1747 
Q 1159 1113 1420 752 
Q 1681 391 2138 391 
Q 2594 391 2855 752 
Q 3116 1113 3116 1747 
z
M 1159 2969 
Q 1341 3281 1617 3432 
Q 1894 3584 2278 3584 
Q 2916 3584 3314 3078 
Q 3713 2572 3713 1747 
Q 3713 922 3314 415 
Q 2916 -91 2278 -91 
Q 1894 -91 1617 61 
Q 1341 213 1159 525 
L 1159 0 
L 581 0 
L 581 4863 
L 1159 4863 
L 1159 2969 
z
" transform="scale(0.015625)"/>
       <path id="DejaVuSans-6a" d="M 603 3500 
L 1178 3500 
L 1178 -63 
Q 1178 -731 923 -1031 
Q 669 -1331 103 -1331 
L -116 -1331 
L -116 -844 
L 38 -844 
Q 366 -844 484 -692 
Q 603 -541 603 -63 
L 603 3500 
z
M 603 4863 
L 1178 4863 
L 1178 4134 
L 603 4134 
L 603 4863 
z
" transform="scale(0.015625)"/>
      </defs>
      <use xlink:href="#DejaVuSans-52"/>
      <use xlink:href="#DejaVuSans-75" x="64.982422"/>
      <use xlink:href="#DejaVuSans-6e" x="128.361328"/>
      <use xlink:href="#DejaVuSans-2e" x="191.740234"/>
      <use xlink:href="#DejaVuSans-20" x="223.527344"/>
      <use xlink:href="#DejaVuSans-6f" x="255.314453"/>
      <use xlink:href="#DejaVuSans-62" x="316.496094"/>
      <use xlink:href="#DejaVuSans-6a" x="379.972656"/>
      <use xlink:href="#DejaVuSans-2e" x="407.755859"/>
     </g>
    </g>
    <g id="line2d_64">
     <path d="M 247.105909 340.933325 
L 257.105909 340.933325 
L 267.105909 340.933325 
" style="fill: none; stroke: #008000; stroke-width: 0.5; stroke-linecap: square"/>
    </g>
    <g id="text_63">
     <!-- $\int \mathrm{Run.\,obj.} \,\mathrm{d}t$ -->
     <g transform="translate(275.105909 344.433325) scale(0.1 -0.1)">
      <defs>
       <path id="DejaVuSansDisplay-222b" d="M 2134 5525 
Q 2172 6263 2528 6556 
Q 2884 6850 3218 6850 
Q 3553 6850 3833 6575 
Q 4113 6300 4200 5678 
L 3544 5613 
Q 3469 6188 3219 6188 
Q 2906 6188 2869 5413 
L 2581 -597 
Q 2547 -1334 2187 -1628 
Q 1828 -1922 1497 -1922 
Q 1163 -1922 883 -1647 
Q 603 -1372 516 -750 
L 1172 -684 
Q 1247 -1259 1497 -1259 
Q 1809 -1259 1847 -488 
L 2134 5525 
z
" transform="scale(0.015625)"/>
       <path id="DejaVuSans-Oblique-74" d="M 2706 3500 
L 2619 3053 
L 1472 3053 
L 1100 1153 
Q 1081 1047 1072 975 
Q 1063 903 1063 863 
Q 1063 663 1183 572 
Q 1303 481 1569 481 
L 2150 481 
L 2053 0 
L 1503 0 
Q 991 0 739 200 
Q 488 400 488 806 
Q 488 878 497 964 
Q 506 1050 525 1153 
L 897 3053 
L 409 3053 
L 500 3500 
L 978 3500 
L 1172 4494 
L 1747 4494 
L 1556 3500 
L 2706 3500 
z
" transform="scale(0.015625)"/>
      </defs>
      <use xlink:href="#DejaVuSansDisplay-222b" transform="translate(0 0.96875)"/>
      <use xlink:href="#DejaVuSans-52" transform="translate(73.632812 0.96875)"/>
      <use xlink:href="#DejaVuSans-75" transform="translate(143.115234 0.96875)"/>
      <use xlink:href="#DejaVuSans-6e" transform="translate(206.494141 0.96875)"/>
      <use xlink:href="#DejaVuSans-2e" transform="translate(269.873047 0.96875)"/>
      <use xlink:href="#DejaVuSans-6f" transform="translate(337.378254 0.96875)"/>
      <use xlink:href="#DejaVuSans-62" transform="translate(398.559895 0.96875)"/>
      <use xlink:href="#DejaVuSans-6a" transform="translate(462.036458 0.96875)"/>
      <use xlink:href="#DejaVuSans-2e" transform="translate(489.819661 0.96875)"/>
      <use xlink:href="#DejaVuSans-64" transform="translate(557.324868 0.96875)"/>
      <use xlink:href="#DejaVuSans-Oblique-74" transform="translate(620.801431 0.96875)"/>
     </g>
    </g>
   </g>
  </g>
  <g id="axes_4">
   <g id="patch_20">
    <path d="M 393.790909 562.7732 
L 698.175 562.7732 
L 698.175 309.9552 
L 393.790909 309.9552 
z
" style="fill: #ffffff"/>
   </g>
   <g id="matplotlib.axis_7">
    <g id="xtick_26">
     <g id="line2d_65">
      <g>
       <use xlink:href="#mbd15499e63" x="393.790909" y="562.7732" style="stroke: #000000; stroke-width: 0.8"/>
      </g>
     </g>
     <g id="text_64">
      <!-- 0.0 -->
      <g transform="translate(385.839347 577.371638) scale(0.1 -0.1)">
       <use xlink:href="#DejaVuSans-30"/>
       <use xlink:href="#DejaVuSans-2e" x="63.623047"/>
       <use xlink:href="#DejaVuSans-30" x="95.410156"/>
      </g>
     </g>
    </g>
    <g id="xtick_27">
     <g id="line2d_66">
      <g>
       <use xlink:href="#mbd15499e63" x="431.83892" y="562.7732" style="stroke: #000000; stroke-width: 0.8"/>
      </g>
     </g>
     <g id="text_65">
      <!-- 2.5 -->
      <g transform="translate(423.887358 577.371638) scale(0.1 -0.1)">
       <use xlink:href="#DejaVuSans-32"/>
       <use xlink:href="#DejaVuSans-2e" x="63.623047"/>
       <use xlink:href="#DejaVuSans-35" x="95.410156"/>
      </g>
     </g>
    </g>
    <g id="xtick_28">
     <g id="line2d_67">
      <g>
       <use xlink:href="#mbd15499e63" x="469.886932" y="562.7732" style="stroke: #000000; stroke-width: 0.8"/>
      </g>
     </g>
     <g id="text_66">
      <!-- 5.0 -->
      <g transform="translate(461.935369 577.371638) scale(0.1 -0.1)">
       <use xlink:href="#DejaVuSans-35"/>
       <use xlink:href="#DejaVuSans-2e" x="63.623047"/>
       <use xlink:href="#DejaVuSans-30" x="95.410156"/>
      </g>
     </g>
    </g>
    <g id="xtick_29">
     <g id="line2d_68">
      <g>
       <use xlink:href="#mbd15499e63" x="507.934943" y="562.7732" style="stroke: #000000; stroke-width: 0.8"/>
      </g>
     </g>
     <g id="text_67">
      <!-- 7.5 -->
      <g transform="translate(499.983381 577.371638) scale(0.1 -0.1)">
       <use xlink:href="#DejaVuSans-37"/>
       <use xlink:href="#DejaVuSans-2e" x="63.623047"/>
       <use xlink:href="#DejaVuSans-35" x="95.410156"/>
      </g>
     </g>
    </g>
    <g id="xtick_30">
     <g id="line2d_69">
      <g>
       <use xlink:href="#mbd15499e63" x="545.982955" y="562.7732" style="stroke: #000000; stroke-width: 0.8"/>
      </g>
     </g>
     <g id="text_68">
      <!-- 10.0 -->
      <g transform="translate(534.850142 577.371638) scale(0.1 -0.1)">
       <use xlink:href="#DejaVuSans-31"/>
       <use xlink:href="#DejaVuSans-30" x="63.623047"/>
       <use xlink:href="#DejaVuSans-2e" x="127.246094"/>
       <use xlink:href="#DejaVuSans-30" x="159.033203"/>
      </g>
     </g>
    </g>
    <g id="xtick_31">
     <g id="line2d_70">
      <g>
       <use xlink:href="#mbd15499e63" x="584.030966" y="562.7732" style="stroke: #000000; stroke-width: 0.8"/>
      </g>
     </g>
     <g id="text_69">
      <!-- 12.5 -->
      <g transform="translate(572.898153 577.371638) scale(0.1 -0.1)">
       <use xlink:href="#DejaVuSans-31"/>
       <use xlink:href="#DejaVuSans-32" x="63.623047"/>
       <use xlink:href="#DejaVuSans-2e" x="127.246094"/>
       <use xlink:href="#DejaVuSans-35" x="159.033203"/>
      </g>
     </g>
    </g>
    <g id="xtick_32">
     <g id="line2d_71">
      <g>
       <use xlink:href="#mbd15499e63" x="622.078977" y="562.7732" style="stroke: #000000; stroke-width: 0.8"/>
      </g>
     </g>
     <g id="text_70">
      <!-- 15.0 -->
      <g transform="translate(610.946165 577.371638) scale(0.1 -0.1)">
       <use xlink:href="#DejaVuSans-31"/>
       <use xlink:href="#DejaVuSans-35" x="63.623047"/>
       <use xlink:href="#DejaVuSans-2e" x="127.246094"/>
       <use xlink:href="#DejaVuSans-30" x="159.033203"/>
      </g>
     </g>
    </g>
    <g id="xtick_33">
     <g id="line2d_72">
      <g>
       <use xlink:href="#mbd15499e63" x="660.126989" y="562.7732" style="stroke: #000000; stroke-width: 0.8"/>
      </g>
     </g>
     <g id="text_71">
      <!-- 17.5 -->
      <g transform="translate(648.994176 577.371638) scale(0.1 -0.1)">
       <use xlink:href="#DejaVuSans-31"/>
       <use xlink:href="#DejaVuSans-37" x="63.623047"/>
       <use xlink:href="#DejaVuSans-2e" x="127.246094"/>
       <use xlink:href="#DejaVuSans-35" x="159.033203"/>
      </g>
     </g>
    </g>
    <g id="xtick_34">
     <g id="line2d_73">
      <g>
       <use xlink:href="#mbd15499e63" x="698.175" y="562.7732" style="stroke: #000000; stroke-width: 0.8"/>
      </g>
     </g>
     <g id="text_72">
      <!-- 20.0 -->
      <g transform="translate(687.042188 577.371638) scale(0.1 -0.1)">
       <use xlink:href="#DejaVuSans-32"/>
       <use xlink:href="#DejaVuSans-30" x="63.623047"/>
       <use xlink:href="#DejaVuSans-2e" x="127.246094"/>
       <use xlink:href="#DejaVuSans-30" x="159.033203"/>
      </g>
     </g>
    </g>
    <g id="text_73">
     <!-- t [s] -->
     <g transform="translate(535.927486 591.049763) scale(0.1 -0.1)">
      <use xlink:href="#DejaVuSans-74"/>
      <use xlink:href="#DejaVuSans-20" x="39.208984"/>
      <use xlink:href="#DejaVuSans-5b" x="70.996094"/>
      <use xlink:href="#DejaVuSans-73" x="110.009766"/>
      <use xlink:href="#DejaVuSans-5d" x="162.109375"/>
     </g>
    </g>
   </g>
   <g id="matplotlib.axis_8">
    <g id="ytick_28">
     <g id="line2d_74">
      <g>
       <use xlink:href="#m0524013861" x="393.790909" y="557.755685" style="stroke: #000000; stroke-width: 0.8"/>
      </g>
     </g>
     <g id="text_74">
      <!-- −3 -->
      <g transform="translate(372.048722 561.554904) scale(0.1 -0.1)">
       <use xlink:href="#DejaVuSans-2212"/>
       <use xlink:href="#DejaVuSans-33" x="83.789062"/>
      </g>
     </g>
    </g>
    <g id="ytick_29">
     <g id="line2d_75">
      <g>
       <use xlink:href="#m0524013861" x="393.790909" y="517.291857" style="stroke: #000000; stroke-width: 0.8"/>
      </g>
     </g>
     <g id="text_75">
      <!-- −2 -->
      <g transform="translate(372.048722 521.091076) scale(0.1 -0.1)">
       <use xlink:href="#DejaVuSans-2212"/>
       <use xlink:href="#DejaVuSans-32" x="83.789062"/>
      </g>
     </g>
    </g>
    <g id="ytick_30">
     <g id="line2d_76">
      <g>
       <use xlink:href="#m0524013861" x="393.790909" y="476.828028" style="stroke: #000000; stroke-width: 0.8"/>
      </g>
     </g>
     <g id="text_76">
      <!-- −1 -->
      <g transform="translate(372.048722 480.627247) scale(0.1 -0.1)">
       <use xlink:href="#DejaVuSans-2212"/>
       <use xlink:href="#DejaVuSans-31" x="83.789062"/>
      </g>
     </g>
    </g>
    <g id="ytick_31">
     <g id="line2d_77">
      <g>
       <use xlink:href="#m0524013861" x="393.790909" y="436.3642" style="stroke: #000000; stroke-width: 0.8"/>
      </g>
     </g>
     <g id="text_77">
      <!-- 0 -->
      <g transform="translate(380.428409 440.163419) scale(0.1 -0.1)">
       <use xlink:href="#DejaVuSans-30"/>
      </g>
     </g>
    </g>
    <g id="ytick_32">
     <g id="line2d_78">
      <g>
       <use xlink:href="#m0524013861" x="393.790909" y="395.900372" style="stroke: #000000; stroke-width: 0.8"/>
      </g>
     </g>
     <g id="text_78">
      <!-- 1 -->
      <g transform="translate(380.428409 399.69959) scale(0.1 -0.1)">
       <use xlink:href="#DejaVuSans-31"/>
      </g>
     </g>
    </g>
    <g id="ytick_33">
     <g id="line2d_79">
      <g>
       <use xlink:href="#m0524013861" x="393.790909" y="355.436543" style="stroke: #000000; stroke-width: 0.8"/>
      </g>
     </g>
     <g id="text_79">
      <!-- 2 -->
      <g transform="translate(380.428409 359.235762) scale(0.1 -0.1)">
       <use xlink:href="#DejaVuSans-32"/>
      </g>
     </g>
    </g>
    <g id="ytick_34">
     <g id="line2d_80">
      <g>
       <use xlink:href="#m0524013861" x="393.790909" y="314.972715" style="stroke: #000000; stroke-width: 0.8"/>
      </g>
     </g>
     <g id="text_80">
      <!-- 3 -->
      <g transform="translate(380.428409 318.771933) scale(0.1 -0.1)">
       <use xlink:href="#DejaVuSans-33"/>
      </g>
     </g>
    </g>
   </g>
   <g id="line2d_81">
    <path d="M 393.790909 436.3642 
L 698.175 436.3642 
" clip-path="url(#p945c7be032)" style="fill: none; stroke-dasharray: 2.775,1.2; stroke-dashoffset: 0; stroke: #000000; stroke-width: 0.75"/>
   </g>
   <g id="line2d_82">
    <path d="M 393.792431 413.360992 
L 393.80765 413.360992 
L 393.959842 413.360992 
L 394.720802 413.360992 
L 395.481763 413.360992 
L 396.242723 413.360992 
L 397.003683 413.360992 
L 397.764643 413.360992 
L 398.525604 413.360992 
L 399.286564 413.360992 
L 400.047524 413.360992 
L 400.808484 413.360992 
L 401.569445 413.360992 
L 402.330405 413.360992 
L 403.091365 413.360992 
L 403.852325 413.360992 
L 404.613285 413.360992 
L 405.374246 413.360992 
L 406.135206 413.360992 
L 406.896166 413.360992 
L 407.657126 413.360992 
L 408.418087 413.360992 
L 409.179047 413.360992 
L 409.940007 413.360992 
L 410.700967 413.360992 
L 411.461927 413.360992 
L 412.222888 413.360992 
L 412.983848 413.360992 
L 413.744808 413.360992 
L 414.505768 413.360992 
L 415.266729 413.360992 
L 416.027689 413.360992 
L 416.788649 413.360992 
L 417.549609 413.360992 
L 418.31057 413.360992 
L 419.07153 413.360992 
L 419.83249 413.360992 
L 420.59345 413.360992 
L 421.35441 413.360992 
L 422.115371 413.360992 
L 422.876331 413.360992 
L 423.637291 413.360992 
L 424.398251 413.360992 
L 425.159212 413.360992 
L 425.920172 413.360992 
L 426.681132 413.360992 
L 427.442092 413.360992 
L 428.203052 413.360992 
L 428.964013 413.360992 
L 429.724973 413.360992 
L 430.485933 413.360992 
L 431.246893 413.360992 
L 432.007854 413.360992 
L 432.768814 413.360992 
L 433.529774 413.360992 
L 434.290734 413.360992 
L 435.051695 413.360992 
L 435.812655 413.360992 
L 436.573615 413.360992 
L 437.334575 413.360992 
L 438.095535 413.360992 
L 438.856496 413.360992 
L 439.617456 413.360992 
L 440.378416 413.360992 
L 441.139376 413.360992 
L 441.900337 413.360992 
L 442.661297 413.360992 
L 443.422257 413.360992 
L 444.183217 413.360992 
L 444.944177 413.360992 
L 445.705138 413.360992 
L 446.466098 413.360992 
L 447.227058 413.360992 
L 447.988018 413.360992 
L 448.748979 413.360992 
L 449.509939 413.360992 
L 450.270899 413.360992 
L 451.031859 413.360992 
L 451.79282 413.360992 
L 452.55378 413.360992 
L 453.31474 413.360992 
L 454.0757 413.360992 
L 454.83666 413.360992 
L 455.597621 413.360992 
L 456.358581 413.360992 
L 457.119541 413.360992 
L 457.880501 413.360992 
L 458.641462 413.360992 
L 459.402422 121.550355 
L 460.163382 121.550355 
L 460.924342 125.923556 
L 461.685302 125.923556 
L 462.446263 135.046042 
L 463.207223 135.046042 
L 463.968183 148.728562 
L 464.729143 148.728562 
L 465.490104 166.411256 
L 466.251064 166.411256 
L 467.012024 187.178506 
L 467.772984 187.178506 
L 468.533945 209.955349 
L 469.294905 209.955349 
L 470.055865 233.737914 
L 470.816825 233.737914 
L 471.577785 257.769764 
L 472.338746 257.769764 
L 473.099706 281.611641 
L 473.860666 281.611641 
L 474.621626 305.110323 
L 475.382587 305.110323 
L 476.143547 328.310022 
L 476.904507 328.310022 
L 477.665467 351.35296 
L 478.426427 351.35296 
L 479.187388 373.408128 
L 479.948348 373.408128 
L 480.709308 390.056799 
L 481.470268 390.056799 
L 482.231229 402.404942 
L 482.992189 402.404942 
L 483.753149 411.531878 
L 484.514109 411.531878 
L 485.27507 418.249055 
" clip-path="url(#p945c7be032)" style="fill: none; stroke: #1f77b4; stroke-width: 0.5; stroke-linecap: square"/>
   </g>
   <g id="line2d_83">
    <path d="M 393.792431 437.270162 
L 393.80765 437.270162 
L 393.959842 437.270162 
L 394.720802 437.270162 
L 395.481763 437.270162 
L 396.242723 437.270162 
L 397.003683 437.270162 
L 397.764643 437.270162 
L 398.525604 437.270162 
L 399.286564 437.270162 
L 400.047524 437.270162 
L 400.808484 437.270162 
L 401.569445 437.270162 
L 402.330405 437.270162 
L 403.091365 437.270162 
L 403.852325 437.270162 
L 404.613285 437.270162 
L 405.374246 437.270162 
L 406.135206 437.270162 
L 406.896166 437.270162 
L 407.657126 437.270162 
L 408.418087 437.270162 
L 409.179047 437.270162 
L 409.940007 437.270162 
L 410.700967 437.270162 
L 411.461927 437.270162 
L 412.222888 437.270162 
L 412.983848 437.270162 
L 413.744808 437.270162 
L 414.505768 437.270162 
L 415.266729 437.270162 
L 416.027689 437.270162 
L 416.788649 437.270162 
L 417.549609 437.270162 
L 418.31057 437.270162 
L 419.07153 437.270162 
L 419.83249 437.270162 
L 420.59345 437.270162 
L 421.35441 437.270162 
L 422.115371 437.270162 
L 422.876331 437.270162 
L 423.637291 437.270162 
L 424.398251 437.270162 
L 425.159212 437.270162 
L 425.920172 437.270162 
L 426.681132 437.270162 
L 427.442092 437.270162 
L 428.203052 437.270162 
L 428.964013 437.270162 
L 429.724973 437.270162 
L 430.485933 437.270162 
L 431.246893 437.270162 
L 432.007854 437.270162 
L 432.768814 437.270162 
L 433.529774 437.270162 
L 434.290734 437.270162 
L 435.051695 437.270162 
L 435.812655 437.270162 
L 436.573615 437.270162 
L 437.334575 437.270162 
L 438.095535 437.270162 
L 438.856496 437.270162 
L 439.617456 437.270162 
L 440.378416 437.270162 
L 441.139376 437.270162 
L 441.900337 437.270162 
L 442.661297 437.270162 
L 443.422257 437.270162 
L 444.183217 437.270162 
L 444.944177 437.270162 
L 445.705138 437.270162 
L 446.466098 437.270162 
L 447.227058 437.270162 
L 447.988018 437.270162 
L 448.748979 437.270162 
L 449.509939 437.270162 
L 450.270899 437.270162 
L 451.031859 437.270162 
L 451.79282 437.270162 
L 452.55378 437.270162 
L 453.31474 437.270162 
L 454.0757 437.270162 
L 454.83666 437.270162 
L 455.597621 437.270162 
L 456.358581 437.270162 
L 457.119541 437.270162 
L 457.880501 437.270162 
L 458.641462 437.270162 
L 459.402422 515.573867 
L 460.163382 515.573867 
L 460.924342 522.428731 
L 461.685302 522.428731 
L 462.446263 526.078816 
L 463.207223 526.078816 
L 463.968183 526.028002 
L 464.729143 526.028002 
L 465.490104 522.061105 
L 466.251064 522.061105 
L 467.012024 514.361232 
L 467.772984 514.361232 
L 468.533945 503.573539 
L 469.294905 503.573539 
L 470.055865 490.709417 
L 470.816825 490.709417 
L 471.577785 476.93931 
L 472.338746 476.93931 
L 473.099706 463.371208 
L 473.860666 463.371208 
L 474.621626 450.896177 
L 475.382587 450.896177 
L 476.143547 440.127247 
L 476.904507 440.127247 
L 477.665467 431.410637 
L 478.426427 431.410637 
L 479.187388 425.201019 
L 479.948348 425.201019 
L 480.709308 422.724328 
L 481.470268 422.724328 
L 482.231229 422.674005 
L 482.992189 422.674005 
L 483.753149 423.90456 
L 484.514109 423.90456 
L 485.27507 425.662326 
" clip-path="url(#p945c7be032)" style="fill: none; stroke: #ff7f0e; stroke-width: 0.5; stroke-linecap: square"/>
   </g>
   <g id="patch_21">
    <path d="M 393.790909 562.7732 
L 393.790909 309.9552 
" style="fill: none; stroke: #000000; stroke-width: 0.8; stroke-linejoin: miter; stroke-linecap: square"/>
   </g>
   <g id="patch_22">
    <path d="M 698.175 562.7732 
L 698.175 309.9552 
" style="fill: none; stroke: #000000; stroke-width: 0.8; stroke-linejoin: miter; stroke-linecap: square"/>
   </g>
   <g id="patch_23">
    <path d="M 393.790909 562.7732 
L 698.175 562.7732 
" style="fill: none; stroke: #000000; stroke-width: 0.8; stroke-linejoin: miter; stroke-linecap: square"/>
   </g>
   <g id="patch_24">
    <path d="M 393.790909 309.9552 
L 698.175 309.9552 
" style="fill: none; stroke: #000000; stroke-width: 0.8; stroke-linejoin: miter; stroke-linecap: square"/>
   </g>
   <g id="legend_3">
    <g id="patch_25">
     <path d="M 614.575 347.31145 
L 691.175 347.31145 
Q 693.175 347.31145 693.175 345.31145 
L 693.175 316.9552 
Q 693.175 314.9552 691.175 314.9552 
L 614.575 314.9552 
Q 612.575 314.9552 612.575 316.9552 
L 612.575 345.31145 
Q 612.575 347.31145 614.575 347.31145 
z
" style="fill: #ffffff; opacity: 0.8; stroke: #cccccc; stroke-linejoin: miter"/>
    </g>
    <g id="line2d_84">
     <path d="M 616.575 323.053638 
L 626.575 323.053638 
L 636.575 323.053638 
" style="fill: none; stroke: #1f77b4; stroke-width: 0.5; stroke-linecap: square"/>
    </g>
    <g id="text_81">
     <!-- v [m/s] -->
     <g transform="translate(644.575 326.553638) scale(0.1 -0.1)">
      <defs>
       <path id="DejaVuSans-76" d="M 191 3500 
L 800 3500 
L 1894 563 
L 2988 3500 
L 3597 3500 
L 2284 0 
L 1503 0 
L 191 3500 
z
" transform="scale(0.015625)"/>
       <path id="DejaVuSans-2f" d="M 1625 4666 
L 2156 4666 
L 531 -594 
L 0 -594 
L 1625 4666 
z
" transform="scale(0.015625)"/>
      </defs>
      <use xlink:href="#DejaVuSans-76"/>
      <use xlink:href="#DejaVuSans-20" x="59.179688"/>
      <use xlink:href="#DejaVuSans-5b" x="90.966797"/>
      <use xlink:href="#DejaVuSans-6d" x="129.980469"/>
      <use xlink:href="#DejaVuSans-2f" x="227.392578"/>
      <use xlink:href="#DejaVuSans-73" x="261.083984"/>
      <use xlink:href="#DejaVuSans-5d" x="313.183594"/>
     </g>
    </g>
    <g id="line2d_85">
     <path d="M 616.575 337.731763 
L 626.575 337.731763 
L 636.575 337.731763 
" style="fill: none; stroke: #ff7f0e; stroke-width: 0.5; stroke-linecap: square"/>
    </g>
    <g id="text_82">
     <!-- $\omega$ [rad/s] -->
     <g transform="translate(644.575 341.231763) scale(0.1 -0.1)">
      <defs>
       <path id="DejaVuSans-Oblique-3c9" d="M 1369 -91 
Q 72 -91 434 1766 
Q 575 2500 1256 3500 
L 1875 3500 
Q 1231 2500 1088 1750 
Q 819 397 1519 397 
Q 2166 397 2478 2078 
L 3009 2078 
Q 2669 388 3316 397 
Q 4013 403 4275 1750 
Q 4419 2500 4169 3500 
L 4788 3500 
Q 5075 2500 4934 1766 
Q 4578 -94 3278 -91 
Q 2428 -88 2503 844 
Q 2194 -91 1369 -91 
z
" transform="scale(0.015625)"/>
      </defs>
      <use xlink:href="#DejaVuSans-Oblique-3c9" transform="translate(0 0.015625)"/>
      <use xlink:href="#DejaVuSans-20" transform="translate(83.740234 0.015625)"/>
      <use xlink:href="#DejaVuSans-5b" transform="translate(115.527344 0.015625)"/>
      <use xlink:href="#DejaVuSans-72" transform="translate(154.541016 0.015625)"/>
      <use xlink:href="#DejaVuSans-61" transform="translate(195.654297 0.015625)"/>
      <use xlink:href="#DejaVuSans-64" transform="translate(256.933594 0.015625)"/>
      <use xlink:href="#DejaVuSans-2f" transform="translate(320.410156 0.015625)"/>
      <use xlink:href="#DejaVuSans-73" transform="translate(354.101562 0.015625)"/>
      <use xlink:href="#DejaVuSans-5d" transform="translate(406.201172 0.015625)"/>
     </g>
    </g>
   </g>
  </g>
  <g id="text_83">
   <!-- $\int \mathrm{Run.\,obj.} \,\mathrm{d}t$ = 32949.4 -->
   <g transform="translate(36 302.65) scale(0.1 -0.1)">
    <use xlink:href="#DejaVuSansDisplay-222b" transform="translate(0 0.96875)"/>
    <use xlink:href="#DejaVuSans-52" transform="translate(73.632812 0.96875)"/>
    <use xlink:href="#DejaVuSans-75" transform="translate(143.115234 0.96875)"/>
    <use xlink:href="#DejaVuSans-6e" transform="translate(206.494141 0.96875)"/>
    <use xlink:href="#DejaVuSans-2e" transform="translate(269.873047 0.96875)"/>
    <use xlink:href="#DejaVuSans-6f" transform="translate(337.378254 0.96875)"/>
    <use xlink:href="#DejaVuSans-62" transform="translate(398.559895 0.96875)"/>
    <use xlink:href="#DejaVuSans-6a" transform="translate(462.036458 0.96875)"/>
    <use xlink:href="#DejaVuSans-2e" transform="translate(489.819661 0.96875)"/>
    <use xlink:href="#DejaVuSans-64" transform="translate(557.324868 0.96875)"/>
    <use xlink:href="#DejaVuSans-Oblique-74" transform="translate(620.801431 0.96875)"/>
    <use xlink:href="#DejaVuSans-20" transform="translate(660.010415 0.96875)"/>
    <use xlink:href="#DejaVuSans-3d" transform="translate(691.797524 0.96875)"/>
    <use xlink:href="#DejaVuSans-20" transform="translate(775.586587 0.96875)"/>
    <use xlink:href="#DejaVuSans-33" transform="translate(807.373696 0.96875)"/>
    <use xlink:href="#DejaVuSans-32" transform="translate(870.996743 0.96875)"/>
    <use xlink:href="#DejaVuSans-39" transform="translate(932.86979 0.96875)"/>
    <use xlink:href="#DejaVuSans-34" transform="translate(996.492837 0.96875)"/>
    <use xlink:href="#DejaVuSans-39" transform="translate(1060.115884 0.96875)"/>
    <use xlink:href="#DejaVuSans-2e" transform="translate(1123.738931 0.96875)"/>
    <use xlink:href="#DejaVuSans-34" transform="translate(1155.52604 0.96875)"/>
   </g>
  </g>
 </g>
 <defs>
  <clipPath id="p8b560db016">
   <rect x="71.604864" y="22.3104" width="252.818" height="252.818"/>
  </clipPath>
  <clipPath id="pd91a0efa07">
   <rect x="393.790909" y="22.3104" width="304.384091" height="252.818"/>
  </clipPath>
  <clipPath id="p101ec623cc">
   <rect x="45.821818" y="309.9552" width="304.384091" height="252.818"/>
  </clipPath>
  <clipPath id="p945c7be032">
   <rect x="393.790909" y="309.9552" width="304.384091" height="252.818"/>
  </clipPath>
 </defs>
</svg>
